<svg width="128" height="128" fill="none" xmlns="http://www.w3.org/2000/svg"><path d="M7.592 59.996c-4.196 11.007-5.466 23.88.319 34.164 2.511 4.46 6.195 8.173 10.118 11.506 24.4 20.749 63.187 31.946 90.701 11.562 15.249-11.293 17.037-34.747 14.076-52.252-2.551-15.085-10.403-29.403-22.412-39.116-16.712-13.506-35.132-15.153-54.02-6.588-17.589 7.982-31.966 22.844-38.782 40.724z" fill="#FFE4DC"/><path d="M74.076 9.568c4.479-4.305 11.212-5.655 16.733-2.336 5.69 3.421 8.644 10.053 6.988 16.092m-68.778-7.155c-5.555-3.142-12.626-2.67-17.123 2.154-4.528 4.858-5.54 12.05-2.279 17.4m48.216-17.73L46.56 19.579c-18.678 2.625-31.69 19.903-29.064 38.59l1.533 10.911c2.627 18.688 19.897 31.71 38.576 29.085l11.273-1.585c18.678-2.625 31.691-19.902 29.064-38.59l-1.533-10.91C93.782 28.39 76.51 15.368 57.833 17.993z" stroke="#E06742" stroke-width="4.5" stroke-linecap="round" stroke-linejoin="round"/><path d="M54.522 35.336l3.17 22.559 19.728-2.773M31.05 93.269l-9.687 12.863m71.69-21.576l12.858 9.695" stroke="#E06742" stroke-width="4.5" stroke-linecap="round" stroke-linejoin="round"/></svg>