<svg width="128" height="128" fill="none" xmlns="http://www.w3.org/2000/svg"><path d="M7.592 59.996c-4.196 11.007-5.466 23.88.319 34.164 2.511 4.46 6.195 8.173 10.118 11.506 24.4 20.749 63.187 31.946 90.701 11.562 15.249-11.293 17.037-34.747 14.076-52.252-2.551-15.085-10.403-29.403-22.412-39.116-16.712-13.506-35.132-15.153-54.02-6.588-17.589 7.982-31.966 22.844-38.782 40.724z" fill="#FFE4DC"/><path d="M115 56c0-25.558-18.213-47.475-43.307-52.115a2.07 2.07 0 10-.753 4.072c23.131 4.276 39.919 24.481 39.919 48.044 0 6.643-1.3 13.046-3.863 19.072a18.528 18.528 0 00-10.629-3.338c-10.274 0-18.633 8.359-18.633 18.633 0 3.948 1.236 7.612 3.338 10.629-6.026 2.563-12.429 3.863-19.072 3.863-26.941 0-48.86-21.918-48.86-48.86 0-23.561 16.789-43.767 39.92-48.043a2.07 2.07 0 00-.753-4.072C27.213 8.525 9 30.442 9 56.001c0 14.156 5.513 27.466 15.523 37.476 10.011 10.011 23.32 15.524 37.477 15.524 7.671 0 15.05-1.597 21.955-4.749a18.558 18.558 0 0012.412 4.749c10.274 0 18.633-8.359 18.633-18.633 0-4.763-1.797-9.114-4.749-12.412C113.403 71.05 115 63.672 115 56.001zm-18.633 48.86c-7.99 0-14.492-6.501-14.492-14.492 0-7.991 6.501-14.492 14.492-14.492 7.991 0 14.492 6.501 14.492 14.492 0 7.991-6.501 14.492-14.492 14.492z" fill="#E06742"/><path d="M62 7.14A2.07 2.07 0 1062 3a2.07 2.07 0 000 4.14zm41.072 76.522a2.07 2.07 0 00-2.928 0l-3.777 3.777-3.777-3.777a2.07 2.07 0 00-2.928 2.928l3.777 3.777-3.777 3.777a2.07 2.07 0 002.928 2.928l3.777-3.777 3.777 3.777c.405.405.934.607 1.464.607a2.071 2.071 0 001.464-3.534l-3.777-3.778 3.777-3.777a2.07 2.07 0 000-2.928zM51.169 26.393a2.037 2.037 0 00-.127.111c-1.603 1.524-3.572 1.705-5.852 1.914l-.146.013c-5.163.476-9.454 4.167-10.68 9.186-1.601 6.568-.477 16 4.172 20.44 1.105 1.11 2.34 1.959 3.534 2.779.463.317.917.63 1.352.95a14.137 14.137 0 00-3.955 1.88l-6.078 4.145a7.544 7.544 0 00-4.146 6.718c0 1.117.243 2.195.72 3.204 1.768 3.744 6.253 5.352 10 3.584.148-.07.288-.158.416-.26l2.411-1.946c.764 2.46 2.023 4.322 3.808 5.64 2.081 1.537 4.706 2.305 7.68 2.305 3.123 0 6.63-.846 10.294-2.533 8.767-4.037 18.55-13.232 19.312-23.88.15-2.107-.085-4.244-.703-6.382a14.735 14.735 0 008.913-6.032 14.743 14.743 0 002.39-11.106c-1.47-8.051-9.218-13.404-17.268-11.934-3.885.71-8.054 3.038-11.152 6.23-3.566 3.675-5.14 7.832-4.432 11.704.084.462.202.918.351 1.367l-7.632-2.521-.061-.02c-1.885-.557-3.97-.324-5.72.64a7.418 7.418 0 00-3.593 4.495 7.487 7.487 0 004.475 9.07c.194.07.451.18.74.31-.328.403-.73.918-1.262 1.614a68.804 68.804 0 00-1.327 1.797c-1.023-.964-2.147-1.737-3.19-2.453-1.09-.75-2.122-1.457-2.955-2.3a2.615 2.615 0 00-.048-.047c-3.046-2.89-4.46-10.589-3.023-16.476a7.985 7.985 0 017.036-6.045l.145-.013c2.642-.242 5.635-.517 8.265-2.978 2.808-2.302 3.196-5.115 3.48-7.173.344-2.5.501-3.64 4.063-4.38a2.07 2.07 0 10-.84-4.054c-6.425 1.333-6.945 5.11-7.325 7.869-.253 1.837-.453 3.287-2.042 4.568zM55.67 55.46a2.07 2.07 0 00-1.146-1.514 99.432 99.432 0 01-.61-.296c-.983-.479-2.202-1.073-3.008-1.371a3.36 3.36 0 01-1.95-4.057 3.313 3.313 0 011.61-2.005c.78-.43 1.696-.54 2.52-.304L66.6 50.377a2.071 2.071 0 001.97-3.561c-1.608-1.329-2.572-2.82-2.866-4.436-.454-2.484.76-5.427 3.33-8.077 2.482-2.557 5.901-4.488 8.924-5.04 5.804-1.06 11.391 2.8 12.453 8.605a10.632 10.632 0 01-1.725 8.008 10.63 10.63 0 01-6.882 4.442H81.8c-.483.09-1.002.15-1.54.18a2.07 2.07 0 00-1.786 2.885c1.01 2.355 1.441 4.698 1.279 6.964-.614 8.572-8.973 16.759-16.914 20.415-5.66 2.607-10.812 2.853-13.782.66-.58-.429-2.343-1.732-2.866-6.292a2.07 2.07 0 00-3.356-1.375l-4.841 3.905a3.375 3.375 0 01-4.61-3.13c0-1.3.757-2.498 1.93-3.05.098-.047.193-.101.283-.163l6.204-4.23c1.762-1.204 3.845-1.81 5.867-1.71a2.1 2.1 0 001.847-.95c1.326-2.096 4.143-5.912 5.586-7.157a2.07 2.07 0 00.569-1.81z" fill="#E06742"/></svg>