<svg width="133" height="128" fill="none" xmlns="http://www.w3.org/2000/svg"><path d="M7.592 59.996c-4.196 11.007-5.466 23.88.319 34.164 2.511 4.46 6.195 8.173 10.118 11.506 24.4 20.749 63.187 31.946 90.701 11.562 15.249-11.293 17.037-34.747 14.076-52.252-2.551-15.085-10.403-29.403-22.412-39.116-16.712-13.506-35.132-15.153-54.02-6.588-17.589 7.982-31.966 22.844-38.782 40.724z" fill="#FFE4DC"/><path d="M53.264 28.415v25.842m25.842 15.505L53.264 54.257m33.593-15.505h23.258V15.494" stroke="#E06742" stroke-width="4.5" stroke-linecap="round" stroke-linejoin="round"/><path d="M90.565 91.168a50.673 50.673 0 01-25.91 13.803 50.806 50.806 0 01-29.243-2.861 50.558 50.558 0 01-22.717-18.56 50.242 50.242 0 01-8.53-28 50.242 50.242 0 018.53-28A50.559 50.559 0 0135.412 8.99a50.802 50.802 0 0129.243-2.86 50.67 50.67 0 0125.91 13.802l19.551 19.412" stroke="#E06742" stroke-width="4.5" stroke-linecap="round" stroke-linejoin="round"/><path d="M133.001 80.169h-18.376v-3.866l6.599-6.671a98.602 98.602 0 003.2-3.417c.815-.923 1.403-1.762 1.762-2.517a5.42 5.42 0 00.558-2.427c0-1.043-.294-1.822-.881-2.338-.576-.527-1.349-.791-2.32-.791a6.695 6.695 0 00-2.967.701c-.959.468-1.96 1.133-3.002 1.996l-3.021-3.578a28 28 0 012.391-1.834c.851-.575 1.834-1.037 2.949-1.385 1.127-.36 2.475-.54 4.046-.54 1.726 0 3.206.313 4.441.936 1.247.623 2.206 1.474 2.877 2.553.671 1.067 1.007 2.278 1.007 3.632 0 1.45-.288 2.775-.863 3.974-.576 1.199-1.415 2.386-2.518 3.56-1.09 1.175-2.409 2.476-3.955 3.902l-3.381 3.183v.251h11.454v4.676zm-36.844 0l9.872-21.613H93.064V53.88h18.862v3.488l-9.943 22.8h-5.826z" fill="#E06742"/></svg>