<svg width="15" height="26" viewBox="0 0 15 26" fill="none" xmlns="http://www.w3.org/2000/svg">
<g clip-path="url(#clip0_76_32222)">
<path d="M5.72697 9.03355L5.72541 9.03579C5.72541 9.03579 5.72669 9.0357 5.72751 9.03522C5.72748 9.03479 5.72745 9.03437 5.72739 9.03352L5.72697 9.03355Z" fill="#FFBF00"/>
<path d="M6.70027 7.80125C6.71636 7.8132 6.72396 7.8272 6.72747 7.7669L6.70027 7.80125Z" fill="#FFBF00"/>
<path d="M8.15079 8.87284C8.15146 8.85538 8.14882 8.84396 8.13187 8.85069C8.13856 8.85696 8.14509 8.86418 8.15079 8.87284Z" fill="#FFBF00"/>
<path d="M1.68454 14.1714C1.68454 14.1714 1.68426 14.1709 1.68398 14.1704L1.68286 14.172C1.68286 14.172 1.68382 14.1717 1.68454 14.1714Z" fill="#FFBF00"/>
<path d="M6.68175 7.82313L6.6044 7.92133C6.61017 7.92447 6.61632 7.92582 6.62289 7.92587C6.62905 7.92369 6.63526 7.92225 6.64151 7.92132C6.6645 7.9104 6.68428 7.8785 6.6815 7.82314L6.68175 7.82313Z" fill="#FFBF00"/>
<path d="M5.74653 18.402C5.7669 18.3821 5.82093 18.4357 5.81779 18.3646C5.80694 18.3394 5.72739 18.2846 5.74653 18.402Z" fill="#FFBF00"/>
<path d="M8.15378 16.2506C8.13767 16.3003 8.14975 16.3965 8.18729 16.3786C8.20628 16.3198 8.17721 16.2788 8.15378 16.2506Z" fill="#FFBF00"/>
<path d="M7.851 11.4256C7.84014 11.4004 7.76059 11.3456 7.77974 11.4631C7.8001 11.4431 7.85414 11.4967 7.851 11.4256Z" fill="#FFBF00"/>
<path d="M10.8982 4.61058C10.9172 4.55176 10.8882 4.51074 10.8647 4.48258C10.8486 4.5322 10.8607 4.6284 10.8982 4.61058Z" fill="#FFBF00"/>
<path d="M4.97807 21.993C4.97359 21.9972 4.97225 22.002 4.97244 22.0082L4.98075 21.9974C4.97994 21.996 4.97913 21.9946 4.97831 21.993L4.97807 21.993Z" fill="#FFBF00"/>
<path d="M10.7988 2.59473C10.7988 2.59473 10.7987 2.59399 10.7987 2.59375L10.7974 2.59556C10.7974 2.59556 10.7983 2.59476 10.7988 2.59473Z" fill="#FFBF00"/>
<path d="M1.39792 14.9882C1.42072 14.9943 1.4587 14.9507 1.45281 15.0506C1.47366 15.0021 1.48046 14.923 1.51924 14.9135C1.5039 14.8566 1.47108 14.8565 1.44967 14.8188C1.45696 14.7692 1.47646 14.7455 1.50795 14.7484C1.55973 14.8955 1.50163 14.9536 1.53052 15.0784C1.51513 15.0728 1.49643 15.0784 1.47792 15.083L1.9357 15.0516C1.9396 15.0491 1.94417 15.049 1.94912 15.0507L2.06736 15.0426C2.09307 15.0132 2.14086 15.0274 2.14756 15.0361C2.14757 15.0364 2.14759 15.0366 2.14737 15.0372L2.18662 15.0345C2.19859 15.0235 2.21747 15.028 2.23574 15.0311L2.27144 15.0287C2.27144 15.0287 2.27267 15.0281 2.27314 15.0275C2.27316 15.0278 2.27318 15.028 2.27321 15.0286L2.34664 15.0235C2.32338 15.0071 2.29996 14.9733 2.27905 14.9279C2.29234 14.836 2.35308 14.9244 2.35926 14.9886C2.3736 14.938 2.41341 14.8803 2.44512 14.9496C2.43444 14.9832 2.422 15.0059 2.40894 15.0195L2.88571 14.9869C2.88313 14.9863 2.88058 14.9862 2.87779 14.9864C2.90454 14.8345 2.83225 14.9008 2.82427 14.7581C2.88362 14.7927 2.82535 14.5731 2.89095 14.621C2.89288 14.6529 2.87726 14.6476 2.86812 14.6554C2.8824 14.7302 2.9407 14.6603 2.93995 14.7833C2.92336 14.7564 2.90328 14.7418 2.87489 14.7544C2.87352 14.8794 2.91769 14.9003 2.91935 14.9841L4.34358 14.8867C4.337 14.8759 4.32773 14.8743 4.31364 14.8877C4.31033 14.8393 4.35966 14.7795 4.30688 14.7889C4.32992 14.7278 4.36064 14.727 4.39298 14.7497C4.39335 14.7886 4.37186 14.7794 4.35727 14.7855C4.37096 14.837 4.38499 14.8673 4.39979 14.8828L4.46081 14.8786C4.49874 14.8455 4.53928 14.7725 4.58161 14.7368C4.5963 14.8251 4.55988 14.8022 4.55066 14.8384C4.57275 14.8936 4.66741 14.8681 4.64466 14.7325C4.6766 14.7346 4.68847 14.7929 4.69279 14.6961C4.71454 14.7649 4.74082 14.8218 4.76971 14.8575L4.90492 14.8483C4.90492 14.8483 4.90539 14.8477 4.90561 14.8472C4.90563 14.8474 4.90565 14.8477 4.90568 14.8482L5.14875 14.8316C5.14691 14.8047 5.15074 14.764 5.12145 14.6668C5.13962 14.6684 5.15753 14.6699 5.15693 14.6313C5.17115 14.6385 5.17002 14.6963 5.18675 14.6954C5.19987 14.6864 5.19087 14.6293 5.20757 14.6279C5.15512 14.5752 5.19657 14.4671 5.13323 14.4671C5.13129 14.4202 5.12886 14.3735 5.11379 14.369C5.10741 14.231 5.1632 14.4032 5.17206 14.2986C5.18063 14.3977 5.2115 14.6556 5.33539 14.6519C5.32884 14.7793 5.28596 14.7884 5.24115 14.825L5.46447 14.8097C5.46897 14.7863 5.47828 14.7513 5.46549 14.7094C5.50037 14.6874 5.51221 14.7416 5.52093 14.8059L5.62424 14.7988C5.61991 14.7988 5.61532 14.7986 5.611 14.7987C5.65359 14.6515 5.76211 14.7021 5.82068 14.7179C5.79139 14.7843 5.74754 14.7977 5.69627 14.7995L4.0093 20.233C4.06707 20.2074 4.16528 20.2411 4.21553 20.2878C4.21774 20.335 4.2199 20.3814 4.23497 20.3859C4.21825 20.5097 4.17842 20.4369 4.16378 20.4572C4.12791 20.3976 4.16573 20.337 4.19699 20.3885C4.18658 20.3554 4.16555 20.3566 4.16489 20.2913C4.13317 20.2886 4.12947 20.3461 4.10635 20.3614C4.13079 20.3877 4.13551 20.4233 4.13048 20.4574C4.14497 20.4946 4.1464 20.5675 4.13523 20.6014C4.11699 20.6023 4.11344 20.5543 4.10016 20.5386C4.0942 20.5482 4.08789 20.5563 4.08217 20.562C4.08743 20.5532 4.08984 20.5439 4.09094 20.5339C4.0879 20.5341 4.08444 20.5356 4.08033 20.5387C4.0749 20.4966 4.08088 20.4799 4.08592 20.4867C4.07759 20.4504 4.06473 20.4149 4.0833 20.3963C4.0563 20.3066 4.00986 20.3044 3.98045 20.3245L3.91877 20.5236C3.97667 20.4886 4.02893 20.4344 4.06994 20.5727C4.01107 20.5824 3.93467 20.6853 3.87044 20.6798L3.63365 21.4426C3.664 21.4586 3.6946 21.4745 3.72764 21.4814C3.80193 21.2845 3.97155 21.652 4.06316 21.3921C4.09912 21.4901 4.13872 21.4518 4.17634 21.3843C4.23463 21.489 4.11352 21.5296 4.15217 21.5852C4.15851 21.6778 4.11237 21.509 4.13136 21.6527C4.01524 21.4539 3.85071 21.7002 3.78002 21.5109C3.73148 21.6752 3.66119 21.6256 3.58358 21.6029L3.46019 22.0006C3.46303 22.0162 3.4671 22.0273 3.47384 22.0292C3.46636 22.0686 3.44958 22.0873 3.42929 22.0994L3.2523 22.6691C3.34086 22.677 3.47717 22.5166 3.5438 22.6873C3.42652 22.6984 3.32732 22.7021 3.23788 22.7148L3.14221 23.0231C3.17377 23.0308 3.21137 23.0189 3.21817 23.1072C3.1899 23.0435 3.15758 23.0953 3.13006 23.1132L3.12718 23.0712L2.88225 23.86C2.88477 23.8596 2.88703 23.8591 2.88981 23.859C2.91362 23.9095 2.89409 24.0108 2.86338 24.0266C2.87534 23.9932 2.86756 23.9538 2.86306 23.9216L2.77009 24.221C2.80408 24.212 2.8391 24.2109 2.87691 24.2244C2.84526 24.3603 2.79753 24.2837 2.75028 24.2847L2.72903 24.3533C2.7656 24.4454 2.86349 24.3034 2.93632 24.3528C2.93461 24.3911 2.92003 24.4381 2.91354 24.388C2.8983 24.4218 2.92256 24.4418 2.89498 24.4884C2.79346 24.4659 2.74062 24.5451 2.67172 24.5381L2.4637 25.2083C2.46462 25.2515 2.4581 25.2789 2.44055 25.2827L2.40363 25.4012L2.52169 25.2453C2.51561 25.2384 2.50956 25.2355 2.50381 25.2443L2.49707 25.1458L2.53479 25.1432C2.5415 25.1928 2.52877 25.2001 2.52891 25.2357L4.61074 22.4838C4.5823 22.4771 4.55418 22.4676 4.52708 22.4544C4.53457 22.3817 4.60776 22.3955 4.68098 22.3912L4.94715 22.0393C4.9368 22.0107 4.92924 21.9894 4.92816 22.0294C4.89521 22.0238 4.94175 21.9715 4.91912 21.8972L4.8938 21.8989C4.87885 21.9333 4.90284 21.953 4.87525 21.9997C4.82988 21.8794 4.89746 21.7517 4.98981 21.8262C4.98505 21.8533 4.9803 21.8806 4.98393 21.9261C4.98975 21.9443 4.99849 21.9531 5.00824 21.958L5.09525 21.8429C5.09372 21.8354 5.09219 21.8279 5.09033 21.8194C5.10169 21.8107 5.11098 21.8088 5.11905 21.8115L5.43351 21.3957C5.39739 21.3809 5.35492 21.3736 5.30249 21.4067C5.33102 21.2883 5.41742 21.2981 5.49696 21.3118L5.82309 20.8807C5.82037 20.8595 5.81627 20.8443 5.80773 20.842C5.80848 20.7972 5.83751 20.8125 5.85584 20.8054C5.85449 20.8154 5.85402 20.8272 5.85386 20.8397L6.10627 20.5059C6.08746 20.4652 6.05697 20.462 6.0535 20.3704C6.10409 20.3959 6.06413 20.2247 6.12218 20.2662C6.12135 20.3024 6.09865 20.2905 6.10136 20.3338C6.11607 20.3666 6.13075 20.3989 6.14588 20.4305C6.14696 20.4388 6.14692 20.4457 6.14706 20.4515L6.55416 19.9136C6.55429 19.8747 6.5646 19.858 6.55871 19.8054C6.58337 19.8127 6.60715 19.8143 6.62926 19.8141L8.14 17.8169C8.12111 17.8271 8.09954 17.8316 8.08187 17.8448C8.06654 17.7247 8.13661 17.7896 8.17055 17.7764L9.67453 15.7883L9.67396 15.7799C9.6778 15.7766 9.68103 15.7753 9.68434 15.7754L12.5983 11.9233C12.6251 11.8877 12.6492 11.8496 12.6696 11.8101L13.5872 10.5721L9.53125 10.8496L8.88454 10.893L9.10405 10.2459C9.09895 10.2307 9.09278 10.2187 9.08388 10.215C9.09766 10.1784 9.11446 10.1638 9.13219 10.1626L9.20352 9.95214C9.19899 9.94915 9.19495 9.94586 9.19167 9.94253C9.19556 9.91758 9.20629 9.90718 9.22001 9.90319L9.32671 9.58885C9.30821 9.57867 9.29129 9.5694 9.28026 9.57168C9.30172 9.53587 9.32569 9.52558 9.34959 9.52166L9.46115 9.19274C9.45261 9.1684 9.4455 9.13886 9.42468 9.15428C9.41747 9.04895 9.45772 9.07952 9.47933 9.13884L9.67601 8.55938C9.63236 8.56466 9.59041 8.56117 9.55576 8.54548C9.55453 8.54989 9.55354 8.55403 9.55257 8.55842C9.55141 8.55265 9.55027 8.54713 9.54864 8.5419C9.54021 8.53764 9.53225 8.53284 9.52498 8.52698C9.50847 8.55711 9.48837 8.57934 9.4963 8.66173C9.49268 8.63857 9.48718 8.6214 9.48084 8.60682C9.48766 8.65825 9.45936 8.76881 9.42287 8.75604C9.38987 8.59346 9.48191 8.70062 9.4752 8.595C9.45837 8.56105 9.43841 8.53697 9.43235 8.46692C9.44928 8.43931 9.52486 8.4583 9.54862 8.54164C9.55099 8.54275 9.55336 8.54386 9.55572 8.54497C9.56699 8.50147 9.58297 8.4673 9.579 8.39075C9.61421 8.40335 9.666 8.42041 9.71918 8.43178L10.0996 7.3109C10.0993 7.30583 10.0989 7.30052 10.0985 7.29444C10.1006 7.29506 10.1024 7.29595 10.104 7.29711L10.4038 6.41374C10.3934 6.41776 10.3836 6.42352 10.3774 6.43666C10.3495 6.37548 10.3702 6.35397 10.3661 6.27158C10.3914 6.34845 10.404 6.33919 10.427 6.34474L10.984 4.70327C10.9252 4.7134 10.8611 4.71677 10.7912 4.71773C10.6522 4.71986 10.4884 4.75066 10.3458 4.68181C10.3562 4.58087 10.4922 4.6466 10.5806 4.5996C10.6461 4.56485 10.6278 4.54575 10.6918 4.55867C10.7044 4.56137 10.7745 4.46653 10.6976 4.45856C10.7652 4.37838 10.8882 4.52947 10.9347 4.40927C10.9273 4.51382 10.9442 4.49638 10.9333 4.57547L10.9837 4.57203C10.9983 4.56569 10.9902 4.51104 10.9896 4.47191C10.9998 4.52132 11.0138 4.55089 11.0298 4.56887L11.1316 4.26861C11.1149 4.24406 11.0991 4.23267 11.0768 4.26727C11.0662 4.15708 11.1227 4.24963 11.1457 4.16309C11.1212 4.10906 11.0746 4.12675 11.0509 4.07037C11.0853 3.96397 11.1684 4.10354 11.1998 4.02711C11.1972 4.04841 11.1954 4.06735 11.1943 4.08498L11.3391 3.65839C11.2868 3.65511 11.2225 3.57072 11.1225 3.63429C11.1583 3.48481 11.2865 3.53938 11.3764 3.54849L11.7028 2.58622C11.6969 2.58917 11.6906 2.59418 11.6845 2.60146C11.6834 2.54049 11.7094 2.5382 11.7265 2.51642L11.7403 2.47605C11.7419 2.45814 11.7402 2.43383 11.734 2.3989C11.7417 2.41134 11.7473 2.42648 11.752 2.44218L11.8771 2.07367C11.8724 2.06814 11.8677 2.06312 11.8628 2.05862C11.869 2.03658 11.8811 2.02761 11.8946 2.02159L12.3833 0.581946L10.8365 2.54654C10.8431 2.55372 10.8505 2.55855 10.8596 2.55793C10.8532 2.67182 10.8101 2.55114 10.8011 2.62832C10.7902 2.62449 10.7903 2.60846 10.7941 2.60031L9.99624 3.61366C10.0519 3.7167 9.9328 3.75715 9.97116 3.81227C9.9775 3.90494 9.93136 3.73613 9.95035 3.87983C9.91952 3.827 9.88499 3.8057 9.84995 3.79919L9.0184 4.85555C9.09155 4.99885 9.2807 4.70355 9.36331 4.91463C9.18588 4.93135 9.04926 4.93103 8.92641 4.97225L7.57292 6.69111C7.59839 6.68046 7.63971 6.70434 7.66277 6.68827C7.65718 6.77005 7.58076 6.78342 7.55158 6.72869C7.55223 6.72331 7.55318 6.71866 7.55419 6.71477L7.14251 7.23771C7.1632 7.24647 7.18108 7.25873 7.18708 7.26086C7.18087 7.31878 7.12427 7.32443 7.08213 7.3146L7.00046 7.41837C7.017 7.41852 7.03897 7.41981 7.05762 7.40251C7.06054 7.47481 7.03081 7.47532 6.9991 7.47291C7.01422 7.53038 7.04569 7.56638 7.02304 7.63687C7.00212 7.59887 6.99293 7.47562 6.98304 7.60628C6.96665 7.54152 6.93947 7.53092 6.91199 7.53076L6.87689 7.57539C6.89084 7.58232 6.90452 7.5852 6.91798 7.57741C6.96316 7.68014 6.83651 7.51328 6.87211 7.64694C6.85594 7.63736 6.84346 7.63339 6.83265 7.63158L6.7299 7.76199C6.78318 7.92725 6.86345 8.02224 6.9408 7.90731C6.92819 8.00178 6.86811 7.99368 6.83641 8.04724C6.83323 7.99327 6.82212 7.96478 6.80648 7.95186C6.80443 7.9553 6.80211 7.95852 6.79929 7.96202C6.77943 8.00637 6.74632 8.03178 6.71076 8.04363C6.70934 8.06382 6.7094 8.08696 6.71039 8.11259C6.65959 7.97615 6.63968 8.2726 6.5488 8.15646C6.54899 8.15543 6.54915 8.15414 6.54934 8.15311C6.53699 8.15116 6.5234 8.13098 6.51167 8.08217C6.50548 8.11821 6.49877 8.15759 6.50069 8.19307C6.48569 8.15238 6.46999 8.15345 6.45422 8.16827C6.45381 8.16982 6.45314 8.17114 6.45274 8.1727C6.4522 8.17222 6.45166 8.17175 6.45112 8.17128C6.42714 8.19632 6.40223 8.24865 6.3771 8.2346C6.37377 8.2305 6.37091 8.22586 6.3683 8.22121L5.75369 9.00173C5.75466 9.00853 5.75591 9.01557 5.75688 9.02237C5.79008 9.0056 5.8233 8.98552 5.85648 8.9835C5.85278 8.95908 5.84949 8.93336 5.84513 8.91051L5.89552 8.90706C5.9034 8.95536 5.89668 8.97236 5.88938 8.98837C5.90556 8.99439 5.92164 9.00626 5.9378 9.02678C5.91116 9.11331 5.85395 9.11748 5.79501 9.12228C5.79062 9.17345 5.77229 9.1658 5.75462 9.12682C5.7375 9.12952 5.72076 9.13397 5.70506 9.14242L5.70385 9.1247C5.69388 9.12767 5.68029 9.11868 5.66967 9.10847L5.17419 9.73762C5.18462 9.75624 5.19779 9.76653 5.21898 9.74905C5.21229 9.8187 5.18863 9.85212 5.15028 9.85296C5.14392 9.80456 5.15194 9.78798 5.15546 9.76129L4.36907 10.7601C4.36919 10.8214 4.43912 10.94 4.37886 10.9665C4.37422 10.9284 4.37763 10.9076 4.38702 10.8998C4.37667 10.8527 4.36201 10.8206 4.3425 10.8031C4.34251 10.7996 4.34279 10.7963 4.34335 10.7932L4.14325 11.0475C4.14325 11.0475 4.14408 11.0485 4.14438 11.0492C4.14197 11.0809 4.13365 11.082 4.12243 11.0741L3.68944 11.6239C3.69463 11.6292 3.69964 11.6355 3.70423 11.643C3.71202 11.7458 3.70162 11.88 3.72817 11.807C3.78353 11.921 3.69357 11.9892 3.66964 11.8774C3.66902 11.8385 3.69078 11.848 3.7051 11.8416C3.68691 11.7877 3.67303 11.7187 3.65292 11.6702L1.74897 14.0884C1.76965 14.0933 1.79257 14.1047 1.82095 14.1292C1.82176 14.1968 1.79122 14.1966 1.792 14.2637C1.7774 14.2586 1.78266 14.2313 1.78975 14.2308C1.73823 14.1545 1.70046 14.2382 1.66391 14.2394C1.66109 14.2205 1.66098 14.2078 1.66237 14.1983L0.937767 15.1186L1.4358 15.0846C1.41553 15.0783 1.40042 15.0544 1.39885 14.9869L1.39792 14.9882ZM2.85217 24.5916C2.86623 24.5108 2.92503 24.5708 2.92338 24.5206C2.96881 24.6307 2.88913 24.6224 2.85217 24.5916ZM3.52653 22.0594C3.51895 22.0304 3.51137 22.0014 3.49694 21.995C3.51234 21.8296 3.57703 22.0725 3.58055 21.9232C3.6257 21.9956 3.55212 22.0467 3.52651 22.0591L3.52653 22.0594ZM3.70181 23.1415C3.73874 23.0492 3.80391 23.2098 3.84708 23.231C3.7948 23.3778 3.75996 23.1846 3.70181 23.1415ZM9.62242 8.65361C9.62108 8.6972 9.60368 8.70679 9.60386 8.75409C9.567 8.78052 9.563 8.69965 9.52616 8.72634C9.52594 8.57448 9.59712 8.65178 9.62242 8.65361ZM11.7926 1.96498C11.7883 2.03981 11.7228 1.98273 11.6941 2.00479C11.7068 1.90853 11.7528 1.93743 11.7926 1.96498ZM11.4297 2.02288C11.4421 1.98413 11.4717 1.98261 11.5029 1.9848C11.5149 2.13076 11.4664 1.97178 11.457 2.05408C11.5422 2.1902 11.4953 2.06723 11.4706 2.25208C11.4478 2.20556 11.4355 2.12551 11.4297 2.02288ZM11.5748 2.47695C11.5865 2.54508 11.618 2.58159 11.5985 2.64118C11.5671 2.66317 11.5522 2.63112 11.554 2.54476C11.527 2.71628 11.4481 2.59958 11.405 2.58802C11.4691 2.51979 11.4973 2.53109 11.5745 2.47697L11.5748 2.47695ZM11.1744 2.17313C11.2069 2.16073 11.2116 2.23978 11.2212 2.30247L11.1835 2.30505L11.1744 2.17313ZM3.68786 14.7985C3.67526 14.6775 3.72686 14.6956 3.75454 14.6614C3.77907 14.808 3.70988 14.7522 3.68786 14.7985ZM3.82411 14.7561C3.77713 14.8056 3.77758 14.5929 3.75115 14.4296C3.83686 14.3624 3.97269 14.3921 4.02363 14.3446C3.9916 14.5383 3.79145 14.5167 3.82411 14.7561ZM4.83746 14.5873C4.78023 14.5538 4.76693 14.5863 4.72201 14.5619C4.74462 14.3606 4.82066 14.5536 4.88356 14.5175C4.92875 14.6202 4.8021 14.4534 4.8377 14.587L4.83746 14.5873ZM5.1201 14.833C5.03265 14.7296 5.01188 14.7794 4.91629 14.8136C4.91211 14.7859 4.91897 14.7822 4.9267 14.7799C4.96056 14.7877 4.96485 14.7315 4.95542 14.6456C5.01778 14.7169 5.03231 14.6912 5.09617 14.6691C5.09656 14.7492 5.12411 14.7391 5.1201 14.833ZM5.10794 14.4693C5.08241 14.5164 5.05477 14.3875 5.05756 14.4728C5.01169 14.4159 5.11647 14.3039 5.10794 14.4693ZM5.23286 13.0975C5.24027 13.0385 5.27545 13.0397 5.2742 12.9619C5.26664 12.9332 5.2593 12.9039 5.24463 12.8978C5.23253 12.8994 5.23751 12.9387 5.23648 12.9645C5.18162 12.9398 5.27747 12.8424 5.24436 12.7116C5.23901 12.6967 5.23394 12.6821 5.22858 12.6669C5.23573 12.6822 5.24057 12.6971 5.24436 12.7116C5.27875 12.809 5.31317 12.9069 5.33138 13.0577C5.29038 13.0534 5.28221 13.1199 5.23286 13.0975ZM5.37453 14.4842C5.38454 14.3591 5.47865 14.5783 5.44323 14.3802C5.47117 14.4429 5.49 14.3872 5.51893 14.3751C5.52836 14.5426 5.41565 14.5088 5.37453 14.4842ZM5.4002 13.8815L5.3912 13.7499L5.44158 13.7464C5.42548 13.7862 5.43627 13.8844 5.4002 13.8815ZM5.50533 13.0125C5.52007 12.9601 5.52288 12.8823 5.52955 12.8124C5.55987 12.8205 5.58047 12.8614 5.61991 12.8393C5.63121 13.0044 5.55171 12.9727 5.50533 13.0125ZM5.65149 13.3009C5.65496 13.3739 5.59904 13.3187 5.57806 13.3393L5.57355 13.2734C5.5846 13.2788 5.58457 13.2597 5.58396 13.2396C5.59618 13.2398 5.59659 13.2792 5.60111 13.3043C5.63551 13.3053 5.62267 13.2477 5.65149 13.3009ZM5.80444 13.6885C5.73654 13.7743 5.61282 13.8586 5.50688 13.775C5.59201 13.6362 5.67554 13.5966 5.80444 13.6885ZM5.57495 14.2718C5.58966 14.2227 5.58469 14.1426 5.54286 14.1745C5.54543 14.0596 5.74014 14.1244 5.77988 14.1252C5.71991 14.2303 5.63091 14.1341 5.5747 14.2718L5.57495 14.2718ZM6.04802 15.2671C6.0287 15.3491 5.91423 15.3119 5.86139 15.3129C5.89509 15.1957 5.98548 15.2788 6.04802 15.2671ZM6.10044 15.6614C6.12885 15.6157 6.14886 15.7891 6.15309 15.6911C6.19196 15.7164 6.15277 15.798 6.16437 15.8559C6.1539 15.8628 6.15158 15.8438 6.14946 15.8239C6.13934 15.8396 6.1289 15.8543 6.12866 15.8917C6.09193 15.8642 6.14887 15.7557 6.08416 15.7953C6.07967 15.7297 6.11572 15.7509 6.10045 15.6616L6.10044 15.6614ZM6.16912 15.5572C6.15786 15.6679 6.13355 15.491 6.10407 15.5286L6.09955 15.4625C6.1085 15.4446 6.11748 15.4272 6.13504 15.4273L6.14405 15.5589L6.16912 15.5572ZM6.08955 16.06C6.1099 16.1789 6.03499 16.0917 6.04819 16.1953C6.01427 16.2127 6.04576 16.0149 6.01183 16.032C6.01717 15.9873 6.03447 15.9689 6.05771 15.9627C6.06189 15.9904 6.05478 15.9942 6.0473 15.9965C6.05336 16.0441 6.08555 16.0053 6.08955 16.06ZM5.97073 15.803C5.97549 15.776 5.98022 15.7485 5.97663 15.7034C5.98832 15.7255 6.01457 15.7522 6.01436 15.7008C6.02456 15.6938 6.02714 15.7129 6.02925 15.7326L6.03377 15.7987C5.99218 15.782 5.99901 15.8632 5.97073 15.803ZM5.99846 16.7624C5.9962 16.8893 5.93515 16.8001 5.91035 16.7685C5.92251 16.6674 5.96742 16.792 5.99846 16.7624ZM6.14068 18.8412C6.1387 18.8792 6.12413 18.9265 6.11761 18.8758C6.10327 18.8819 6.11108 18.9366 6.11171 18.9755C6.1004 18.9589 6.08886 18.9427 6.07148 18.9451C6.05933 18.8307 6.1213 18.8033 6.14043 18.8412L6.14068 18.8412ZM5.88706 17.1679C5.92365 17.2008 5.94751 17.1852 5.95799 17.0967C5.98204 17.1395 6.00732 17.1783 6.01967 17.2583C5.95512 17.2406 5.92428 17.2956 5.87078 17.3018C5.87402 17.2525 5.8838 17.217 5.88706 17.1679ZM5.99726 17.8566C6.02107 17.9071 6.00154 18.0085 5.97083 18.0243C5.99556 17.9544 5.93455 17.8584 5.99726 17.8566ZM5.96904 17.6263C6.00014 17.776 5.9149 17.7348 5.89785 17.6976C5.90703 17.642 5.94882 17.658 5.96904 17.6263ZM5.93897 17.9268C5.8966 18.0324 5.91469 18.2151 5.87618 17.931L5.93897 17.9268ZM5.71165 15.1581C5.6946 15.277 5.65485 15.1719 5.60072 15.1988C5.62948 15.1431 5.67492 15.1232 5.71165 15.1581ZM5.8604 17.7004C5.85199 17.8081 5.79844 17.7392 5.77454 17.7393C5.77481 17.6653 5.83565 17.7217 5.8604 17.7004ZM5.64418 17.6819C5.68475 17.6837 5.73819 17.6431 5.73905 17.7746C5.68925 17.7607 5.68156 17.8378 5.62788 17.8155C5.61262 17.7262 5.64843 17.7477 5.64418 17.6819ZM5.65498 18.2115C5.67345 18.2324 5.68314 18.2811 5.68934 18.3419C5.65851 18.3486 5.6289 18.3509 5.61138 18.3142C5.59983 18.2234 5.65636 18.2801 5.65498 18.2115ZM5.53623 16.6618C5.51071 16.7088 5.48307 16.58 5.48585 16.6652C5.43017 16.5876 5.54208 16.4907 5.53623 16.6618ZM5.45562 16.0375C5.43864 16.1574 5.37121 16.0381 5.31712 16.0469C5.33252 15.9411 5.40833 15.971 5.45562 16.0375ZM5.35647 19.9462C5.38895 19.9338 5.39359 20.0129 5.40322 20.0755L5.3655 20.0781L5.35647 19.9462ZM5.37743 20.2526C5.41939 20.2263 5.4304 20.3649 5.41403 20.4157C5.3861 20.4127 5.38124 20.3342 5.37743 20.2526ZM5.12307 19.3084C5.15438 19.32 5.14631 19.2465 5.18359 19.2709C5.19365 19.34 5.18097 19.3591 5.17997 19.404C5.14768 19.4153 5.12523 19.3958 5.1228 19.3082L5.12307 19.3084ZM5.17275 20.0346C5.11858 20.0645 5.09403 19.9957 5.04466 20.0103C5.03576 19.8654 5.14935 19.8897 5.17275 20.0346ZM5.0989 19.5092C5.05755 19.4922 5.06414 19.5737 5.03611 19.5135C5.05135 19.4611 5.08786 19.3441 5.0989 19.5092ZM4.95123 18.4588C4.94564 18.5406 4.86922 18.554 4.84004 18.4993C4.84833 18.4234 4.91845 18.4817 4.95123 18.4588ZM4.98952 20.3793C4.99671 20.3989 5.00141 20.4304 5.0008 20.4773L4.92509 20.4824C4.91592 20.393 4.95495 20.3313 4.98021 20.3622C4.97662 20.3098 4.96056 20.2981 4.95926 20.2382C4.99284 20.2494 5.00396 20.3338 5.04149 20.332C5.03612 20.4283 5.00452 20.3569 4.98952 20.3793ZM5.06247 21.1927C5.06358 21.3094 4.99317 21.2506 4.96396 21.2328C4.96807 21.0994 5.01539 21.2333 5.06247 21.1927ZM5.10584 20.5365C5.11009 20.6209 5.06804 20.6049 5.03464 20.6075C5.02772 20.51 5.08523 20.4918 5.10584 20.5365ZM4.9667 19.9825C4.95579 20.009 4.94526 20.0298 4.93494 20.0463C4.95529 20.0983 4.93639 20.194 4.9064 20.2092C4.90193 20.1625 4.89865 20.1182 4.90106 20.0865C4.84398 20.1334 4.7867 20.0844 4.71113 20.1326L4.70436 20.0336C4.81668 20.0282 4.89411 19.9478 4.9667 19.9825ZM4.66575 20.3913C4.65991 20.2391 4.75866 20.3959 4.762 20.3183C4.79891 20.486 4.69329 20.3365 4.66575 20.3913ZM4.68332 20.4659C4.66906 20.5178 4.62466 20.5641 4.59748 20.5051C4.61534 20.4614 4.66 20.4151 4.68332 20.4659ZM4.72227 19.9235C4.72612 20.0059 4.68039 19.936 4.67188 19.9269C4.67539 19.8593 4.72939 19.9011 4.72788 19.8234C4.79098 19.8755 4.67234 19.9002 4.72201 19.9235L4.72227 19.9235ZM4.79772 19.9183C4.8022 20.0024 4.7562 19.9992 4.73692 19.9555C4.73244 19.8714 4.77841 19.8741 4.79772 19.9183ZM4.71951 19.7011C4.73006 19.7064 4.73443 19.7331 4.74709 19.7322C4.74646 19.7603 4.75405 19.7633 4.76202 19.7645C4.73308 19.81 4.66595 19.8736 4.62575 19.8067C4.61565 19.6405 4.72863 19.8864 4.71977 19.701L4.71951 19.7011ZM4.57511 19.8101C4.57444 19.9305 4.48632 19.862 4.44112 19.8855C4.46387 19.7979 4.55095 19.7322 4.57511 19.8101ZM4.65397 20.037L4.66298 20.1687C4.56286 20.1145 4.55588 20.2355 4.46144 20.1825C4.50031 19.9773 4.6011 20.1899 4.65397 20.037ZM4.37747 20.2454C4.38213 20.2838 4.37869 20.3041 4.36932 20.3121C4.3833 20.3603 4.40582 20.3809 4.43687 20.3736C4.44678 20.2471 4.38024 20.3714 4.39013 20.2446C4.43387 20.2629 4.47385 20.2933 4.48952 20.4034C4.46172 20.4877 4.38378 20.3376 4.38287 20.5101C4.37525 20.4509 4.30568 20.2669 4.35441 20.2801C4.32883 20.1999 4.26539 20.2729 4.24097 20.2878C4.24599 20.112 4.32403 20.2191 4.37724 20.2457L4.37747 20.2454ZM4.1328 19.9969C4.1317 19.8916 4.26383 19.8709 4.25073 20.0549C4.22585 19.9887 4.18246 19.9828 4.1328 19.9969ZM4.29088 21.0135C4.32455 21.0112 4.32534 21.1157 4.36069 21.1082C4.33596 21.1668 4.29186 21.1841 4.23936 21.1826C4.25036 21.1129 4.28253 21.0886 4.29088 21.0135ZM3.99725 21.1687C3.98771 21.1965 3.97581 21.2085 3.96026 21.1783C3.9533 21.0691 3.98759 21.0498 4.02692 21.041C4.02431 21.0511 4.02161 21.0637 4.01873 21.0774C4.07127 21.098 4.10656 21.1192 4.17181 21.1211C4.14844 21.2443 4.05631 21.1804 3.99725 21.1687ZM4.02307 22.0926C3.97197 22.1116 3.97909 21.9407 3.95688 21.8651C3.9936 21.8924 4.00978 21.9877 4.02307 22.0926ZM3.97398 23.2231C3.9664 23.1941 3.95879 23.1646 3.94414 23.1588C3.9672 23.0979 3.99792 23.0971 4.03 23.1198C4.01392 23.1598 4.00588 23.2171 3.97398 23.2231ZM3.94623 22.2634C3.93651 22.1771 3.9563 22.1541 3.98986 22.1612C3.9996 22.2478 3.97979 22.2706 3.94623 22.2634ZM4.09239 22.5518C4.06179 22.5582 4.03222 22.561 4.01467 22.5238C4.01994 22.4522 4.08488 22.4198 4.09239 22.5518ZM4.05217 22.886C4.06448 22.8094 4.13894 22.8679 4.17574 22.8443C4.1471 22.9388 4.07836 22.912 4.05217 22.886ZM4.14076 22.5152C4.19121 22.4309 4.25536 22.4873 4.2998 22.4379C4.30118 22.6551 4.18244 22.5073 4.14076 22.5152ZM4.2138 21.5489C4.21573 21.4061 4.25014 21.4963 4.28273 21.4447C4.29818 21.5627 4.25239 21.5478 4.2138 21.5489ZM4.31698 22.5031C4.3724 22.4134 4.4492 22.4168 4.51628 22.4564C4.43731 22.5254 4.37586 22.5271 4.31698 22.5031ZM4.3864 21.6699C4.38619 21.518 4.45736 21.5953 4.48267 21.5971C4.48133 21.6407 4.46392 21.6503 4.46411 21.6976C4.42725 21.7241 4.42324 21.6432 4.3864 21.6699ZM4.46499 21.8965C4.41692 21.7812 4.5324 21.8629 4.55311 21.8905C4.54094 22.0472 4.47535 21.8322 4.46499 21.8965ZM4.7481 21.4129C4.65969 21.4851 4.51048 21.5314 4.416 21.489C4.41478 21.4934 4.41379 21.4976 4.41282 21.502C4.41166 21.4962 4.41052 21.4907 4.40889 21.4854C4.40046 21.4812 4.3925 21.4764 4.38523 21.4705C4.36872 21.5006 4.34862 21.5229 4.35655 21.6053C4.34235 21.5167 4.30159 21.5159 4.2926 21.4105C4.30953 21.3828 4.38511 21.4018 4.40887 21.4852C4.41124 21.4863 4.4136 21.4874 4.41597 21.4885C4.42724 21.445 4.44322 21.4108 4.43925 21.3343C4.52868 21.3661 4.72504 21.429 4.78153 21.3437C4.82071 21.4107 4.83807 21.3968 4.85362 21.4715C4.82368 21.3983 4.76799 21.5697 4.74832 21.4123L4.7481 21.4129ZM4.76101 20.4934C4.74424 20.3636 4.82746 20.4497 4.85726 20.4204C4.85376 20.5069 4.79585 20.5602 4.76101 20.4934ZM5.15797 21.4843C5.15841 21.4202 5.097 21.3852 5.08251 21.4895C5.07637 21.4517 5.05789 21.3749 5.04479 21.492C4.99158 21.3799 4.94127 21.4923 4.87645 21.4372C5.00026 21.2799 5.14682 21.3846 5.28744 21.3429C5.30604 21.5515 5.16902 21.3075 5.15797 21.4843ZM5.25987 20.7577C5.20779 20.7327 5.1703 20.8132 5.14669 20.7654C5.15212 20.6552 5.20564 20.6492 5.25082 20.6255L5.25987 20.7577ZM5.26123 20.5917C5.24087 20.5506 5.24297 20.4363 5.2226 20.3952C5.1437 20.4057 5.13209 20.5075 5.06919 20.3726C5.09801 20.3439 5.12466 20.3319 5.1507 20.3258C5.16587 20.2426 5.17538 20.1473 5.21657 20.1211C5.20904 20.1857 5.20001 20.2472 5.19603 20.3192C5.2294 20.3161 5.2638 20.3133 5.30371 20.2904C5.27959 20.3656 5.31679 20.4185 5.3195 20.5213C5.2964 20.5369 5.29269 20.5942 5.26096 20.5915L5.26123 20.5917ZM5.29107 20.6561C5.28687 20.6541 5.28442 20.6555 5.28287 20.6589C5.28122 20.6682 5.28014 20.6785 5.28065 20.6896C5.28029 20.6769 5.27996 20.6647 5.28287 20.6589C5.29976 20.5675 5.41724 20.5668 5.45713 20.6775C5.4069 20.6871 5.34032 20.8033 5.29107 20.6561ZM5.3575 20.519C5.37537 20.4753 5.42001 20.4287 5.44334 20.4798C5.42547 20.5235 5.38084 20.5701 5.3575 20.519ZM5.273 16.8782C5.28742 16.7803 5.2998 16.6192 5.21948 16.6499C5.23212 16.6228 5.36286 16.4404 5.3957 16.6378C5.28866 16.5755 5.38156 17.0298 5.273 16.8782ZM5.65835 18.443C5.64349 18.646 5.56677 18.417 5.48439 18.4882C5.47723 18.4356 5.49241 18.4307 5.49028 18.3884C5.47068 18.3994 5.46638 18.3587 5.4503 18.358C5.52609 18.2053 5.58091 18.4674 5.6586 18.443L5.65835 18.443ZM5.65287 20.0249C5.6301 19.9784 5.61775 19.8983 5.612 19.7957C5.62436 19.7569 5.65402 19.7554 5.6852 19.7576C5.69722 19.9036 5.6487 19.7446 5.63932 19.8269C5.72444 19.963 5.67761 19.84 5.65287 20.0249ZM5.53829 19.2797C5.51164 19.2248 5.53322 19.1499 5.56701 19.1455C5.57644 19.2314 5.57214 19.2874 5.53829 19.2797ZM5.61147 19.2414L5.60474 19.1429L5.64246 19.1403C5.64965 19.1933 5.63443 19.1976 5.63654 19.2397L5.66186 19.238C5.66028 19.3375 5.63264 19.2087 5.61147 19.2414ZM5.69277 20.4297C5.68034 20.4153 5.70865 20.3978 5.73974 20.3837C5.73682 20.3671 5.73535 20.3456 5.73598 20.3176C5.70905 20.4891 5.63011 20.3727 5.58707 20.3608C5.65109 20.2926 5.67933 20.3039 5.75652 20.2498C5.76484 20.297 5.78205 20.3292 5.78573 20.3643C5.7944 20.3609 5.80032 20.3582 5.80175 20.3568C5.80172 20.3563 5.8017 20.3561 5.80166 20.3556C5.80242 20.3555 5.80247 20.3563 5.80175 20.3568C5.84456 20.5177 5.7417 20.4161 5.69252 20.4297L5.69277 20.4297ZM5.86634 20.3751C5.86458 20.2676 5.94652 20.3424 5.91557 20.1725C5.95696 20.2384 5.93825 20.3813 6.00032 20.2995C5.98652 20.4994 5.93467 20.2956 5.86634 20.3751ZM5.87608 19.7776C5.88883 19.6813 5.93482 19.7103 5.9746 19.7378C5.97031 19.8126 5.90485 19.7555 5.87608 19.7776ZM5.68541 18.4742C5.68141 18.4157 5.74953 18.3739 5.69946 18.3077C5.79845 18.2561 5.88032 18.1849 5.98459 18.2218C5.94543 18.3893 5.88214 18.2339 5.8253 18.2991C5.84617 18.4851 5.96105 18.2941 6.04401 18.3502C6.0423 18.3885 6.02771 18.4356 6.02122 18.3854C6.00599 18.4192 6.03025 18.4392 6.00266 18.4859C5.8606 18.4544 5.81402 18.6214 5.68569 18.4745L5.68541 18.4742ZM6.02998 18.5171C6.07541 18.6271 5.99573 18.6189 5.95878 18.5881C5.97283 18.5072 6.03164 18.5673 6.02998 18.5171ZM6.08667 19.896C6.07546 19.866 6.06044 19.8472 6.04444 19.8327C6.06378 19.7622 6.14494 19.8256 6.13617 19.6937C6.18157 19.7847 6.11679 19.8751 6.08669 19.8962L6.08667 19.896ZM6.16703 19.9663C6.20682 19.9046 6.2889 19.788 6.34126 19.9213C6.29971 20.0241 6.23578 20.0267 6.16703 19.9663ZM6.41896 19.9491L6.35592 19.9534C6.34874 19.9004 6.36417 19.8956 6.3618 19.8535C6.38681 19.8658 6.4168 19.8617 6.41896 19.9491ZM6.43162 19.9482C6.4068 19.827 6.49707 19.8117 6.51522 19.8761C6.53392 20.0007 6.45859 19.9222 6.43162 19.9482ZM6.23749 17.1106L6.23072 17.0116C6.26356 17.0381 6.31725 16.9973 6.3256 17.1046C6.29733 17.0409 6.26501 17.0927 6.23749 17.1106ZM6.43346 19.0529C6.43548 18.9449 6.44228 18.8473 6.45087 18.7533C6.46175 18.7785 6.48762 19.0749 6.43346 19.0529ZM6.11413 16.7873C6.12803 16.5592 6.2343 16.7033 6.28947 16.5764C6.34492 16.8255 6.5612 16.4546 6.65121 16.6845C6.42448 16.7056 6.26454 16.6992 6.11413 16.7873ZM6.63337 16.0556C6.62579 16.0266 6.61821 15.9976 6.60378 15.9912C6.61918 15.8258 6.68387 16.0687 6.68739 15.9194C6.73254 15.9918 6.65896 16.0429 6.63335 16.0553L6.63337 16.0556ZM6.80865 17.1377C6.84558 17.0454 6.91075 17.206 6.95392 17.2272C6.90164 17.374 6.8668 17.1808 6.80865 17.1377ZM6.88693 15.5081C6.82785 15.708 6.73669 15.5914 6.63952 15.5914C6.56448 15.5915 6.50333 15.8243 6.46103 15.5703C6.44874 15.6882 6.43135 15.6497 6.38168 15.7083C6.38068 15.7791 6.40421 15.7698 6.42393 15.7718C6.39546 15.8129 6.39123 15.9073 6.34486 15.91C6.38804 16.0355 6.47199 15.8273 6.52697 15.7981C6.49528 15.833 6.50218 15.9786 6.56134 15.9285C6.56353 15.9754 6.56547 16.0223 6.58077 16.0266C6.56456 16.1132 6.5024 16.1007 6.4617 16.1342C6.46077 16.076 6.47806 16.0573 6.50757 16.0647C6.46759 15.9265 6.44681 16.2103 6.4068 16.0716C6.3744 16.1038 6.45034 16.1429 6.41584 16.2038C6.3109 16.027 6.25484 16.0629 6.10673 16.1252C6.10595 15.98 6.06795 15.9561 6.03041 15.9317C6.0123 15.8269 6.04318 15.8284 6.04443 15.7649C6.11283 16.0434 6.152 15.7606 6.19873 15.9864C6.23405 15.9784 6.247 15.9223 6.28259 15.9145C6.27699 15.8846 6.22064 15.8307 6.22994 15.8848C6.20061 15.8354 6.25371 15.7488 6.28821 15.8144C6.28048 15.7015 6.25586 15.8212 6.24148 15.6853C6.21346 15.6811 6.20329 15.7146 6.2105 15.7866C6.16617 15.6704 6.22505 15.5381 6.25323 15.4853C6.28577 15.4589 6.28304 15.5492 6.30812 15.5477C6.32403 15.4456 6.5669 15.4 6.60003 15.5608C6.64227 15.5424 6.65131 15.3919 6.67574 15.5556C6.70094 15.5447 6.69477 15.4658 6.70442 15.4209C6.74754 15.4413 6.78857 15.4685 6.83478 15.4783C6.90907 15.2815 7.0787 15.6489 7.1703 15.389C7.20626 15.487 7.24587 15.4487 7.28348 15.3813C7.34177 15.4859 7.22066 15.5265 7.25932 15.5821C7.26566 15.6748 7.21951 15.506 7.2385 15.6497C7.12238 15.4508 6.95786 15.6971 6.88716 15.5078L6.88693 15.5081ZM6.51645 9.29728C6.4593 9.25769 6.51149 9.45534 6.46243 9.43351C6.47262 9.26645 6.41478 9.32077 6.38809 9.27274C6.41965 9.22835 6.42138 9.11987 6.47985 9.13419C6.47016 9.26026 6.51887 9.19511 6.51645 9.29728ZM6.79572 12.8253C6.76678 12.8708 6.69963 12.9341 6.65946 12.8674C6.64936 12.7012 6.76234 12.9471 6.75348 12.7618C6.76402 12.7672 6.76839 12.7938 6.78105 12.793C6.78042 12.821 6.78801 12.824 6.79598 12.8253L6.79572 12.8253ZM7.20647 13.0956C7.1523 13.1255 7.12775 13.0567 7.07838 13.0713C7.06948 12.9264 7.18307 12.9506 7.20647 13.0956ZM7.06958 12.5745C7.08482 12.5221 7.12133 12.4051 7.13237 12.5702C7.09102 12.5532 7.09761 12.6347 7.06958 12.5745ZM7.35377 13.5828C7.33067 13.5984 7.32695 13.6556 7.29523 13.6529C7.27486 13.6119 7.27696 13.4975 7.2566 13.4564C7.17769 13.4669 7.16609 13.5687 7.10319 13.4338C7.18512 13.3524 7.24788 13.4033 7.33797 13.3519C7.31386 13.4271 7.35106 13.48 7.35377 13.5828ZM7.47734 13.541C7.45947 13.5847 7.41483 13.6313 7.3915 13.5802C7.40936 13.5365 7.454 13.49 7.47734 13.541ZM7.41115 13.3136C7.45311 13.2873 7.46412 13.4259 7.44775 13.4767C7.41982 13.4737 7.41496 13.3952 7.41115 13.3136ZM7.30336 8.32844C7.31264 8.29295 7.33082 8.27619 7.35745 8.27869C7.35762 8.28122 7.35778 8.2835 7.35821 8.28602C7.36064 8.28076 7.36305 8.275 7.36538 8.26823L7.37439 8.39989C7.27427 8.34569 7.26729 8.46674 7.17285 8.41368C7.19919 8.27451 7.25395 8.32749 7.30309 8.3282L7.30336 8.32844ZM7.1528 8.11692C7.17555 8.02938 7.26263 7.96364 7.28679 8.04161C7.28612 8.16198 7.19802 8.09373 7.1528 8.11692ZM7.74728 7.74504C7.76252 7.69261 7.79904 7.57564 7.81008 7.74074C7.78862 7.73204 7.78014 7.7494 7.77299 7.76007C7.80323 7.76334 7.83272 7.7743 7.85476 7.78042C7.81031 7.88166 7.73148 7.85983 7.64508 7.86116C7.66834 7.78096 7.71115 7.75972 7.75487 7.75927C7.7526 7.75587 7.75 7.75121 7.74703 7.74506L7.74728 7.74504ZM7.88417 8.26606C7.83 8.29597 7.80545 8.22718 7.75608 8.24175C7.74719 8.09686 7.86078 8.12114 7.88417 8.26606ZM8.1238 9.12118C8.14414 9.24011 8.06924 9.15289 8.08244 9.25654C8.04852 9.27387 8.08001 9.07609 8.04608 9.09317C8.05142 9.04854 8.06872 9.03006 8.09196 9.02389C8.09614 9.05159 8.08902 9.05538 8.08155 9.05767C8.08761 9.10534 8.1198 9.0665 8.1238 9.12118ZM8.92498 12.8785C8.94173 13.0081 8.85851 12.922 8.82873 12.9515C8.84006 12.8569 8.86658 12.9062 8.92498 12.8785ZM8.63807 9.05292C8.65346 8.88754 8.71815 9.13037 8.72167 8.98106C8.76682 9.05353 8.69324 9.1046 8.66764 9.11704C8.66006 9.08805 8.65248 9.05906 8.63805 9.05267L8.63807 9.05292ZM8.14841 9.84906C8.16231 9.62095 8.26858 9.76503 8.32375 9.63814C8.3792 9.8872 8.59549 9.51627 8.6855 9.74618C8.45876 9.76729 8.29883 9.76093 8.14841 9.84906ZM9.05079 15.3272C9.0189 15.3332 9.0333 15.4396 9.03927 15.527C8.9575 15.4919 9.04205 15.337 8.98124 15.2328C8.99146 15.226 8.99403 15.2449 8.99614 15.2646C9.04431 15.2697 9.07671 15.1744 9.13464 15.2551C9.15572 15.3885 9.07437 15.3745 9.05104 15.3272L9.05079 15.3272ZM9.16125 16.0159C9.12671 16.0056 9.09027 15.8448 9.14996 15.8508C9.16576 15.9518 9.16316 15.9138 9.16125 16.0159ZM8.93786 14.9704C8.93327 14.9184 8.93532 14.8442 8.91617 14.8394C8.91692 14.7946 8.94595 14.8099 8.96429 14.8028C8.95659 14.8613 8.97692 14.98 8.93786 14.9704ZM8.59536 12.8683C8.67117 12.8906 8.73825 12.8598 8.77409 12.8891C8.75006 13.0472 8.67856 12.9577 8.59198 13.001C8.58616 12.9419 8.60266 12.9303 8.59535 12.868L8.59536 12.8683ZM8.78083 13.9283C8.7992 13.9515 8.81744 14.0024 8.81514 14.0468C8.78533 14.0684 8.78384 13.9983 8.76528 13.9835C8.76324 13.9946 8.76103 14.007 8.75922 14.0214C8.73644 13.9748 8.7241 13.8948 8.71835 13.7922C8.73071 13.7534 8.76037 13.7519 8.79155 13.7541C8.80357 13.9 8.75505 13.7411 8.74567 13.8234C8.80793 13.9229 8.79966 13.8838 8.78083 13.9283ZM8.74578 13.587C8.712 13.4204 8.80952 13.5371 8.79755 13.4179C8.81955 13.4495 8.78826 13.6019 8.74578 13.587ZM8.86313 14.2462C8.87491 14.3144 8.90641 14.3509 8.88683 14.4105C8.85552 14.4325 8.8406 14.4004 8.84233 14.3141C8.8154 14.4856 8.73646 14.3691 8.69342 14.3573C8.75744 14.2891 8.78568 14.3004 8.86287 14.2463L8.86313 14.2462ZM8.97084 15.2666C8.9924 15.474 8.929 15.3244 8.89177 15.4048C8.87791 15.3286 8.85185 15.2935 8.8301 15.2434C8.85474 15.2168 8.90172 15.2677 8.97084 15.2666ZM8.33954 15.8404C8.37398 15.734 8.45705 15.8736 8.48845 15.7972C8.47094 15.939 8.49172 15.99 8.45837 16.0973C8.42238 16.051 8.40323 15.9793 8.36575 16.0375C8.35516 15.9274 8.4116 16.0199 8.43468 15.9334C8.41013 15.8793 8.36351 15.897 8.33981 15.8406L8.33954 15.8404ZM8.09075 16.0894C8.06577 16.111 8.03778 15.9473 8.03584 16.0268C8.0029 16.0212 8.04943 15.9689 8.0268 15.8946L8.00148 15.8964C7.98653 15.9307 8.01052 15.9504 7.98294 15.9971C7.93757 15.8768 8.00514 15.7491 8.0975 15.8236C8.09273 15.8507 8.08799 15.878 8.09161 15.9235C8.11065 15.9825 8.15921 15.9448 8.18423 15.9833C8.214 15.9388 8.21905 15.9122 8.19827 15.8168C8.24661 15.7796 8.25772 15.8641 8.2805 15.9106C8.32482 15.904 8.24619 15.8033 8.28638 15.8107C8.32378 15.796 8.32006 15.9163 8.33539 15.973C8.24987 15.9686 8.17927 16.1599 8.08345 15.9902C8.06571 16.0059 8.09141 16.0321 8.09025 16.0895L8.09075 16.0894ZM7.18913 14.56C7.2207 14.5082 7.15813 14.4265 7.1905 14.394C7.15824 14.2868 7.09813 14.3044 7.07256 14.3359C7.04908 14.1712 7.244 14.213 7.32222 14.2855C7.32443 14.3327 7.32659 14.3791 7.34166 14.3837C7.32494 14.5074 7.28511 14.4346 7.27047 14.4549C7.2346 14.3953 7.27243 14.3347 7.30368 14.3863C7.29327 14.3531 7.27224 14.3543 7.27159 14.289C7.23986 14.2863 7.23616 14.3438 7.21304 14.3591C7.26909 14.4199 7.22132 14.5285 7.18886 14.5597L7.18913 14.56ZM7.09692 15.0638C7.16667 15.0868 7.20168 15.1152 7.27791 15.1176C7.25286 15.2498 7.14873 15.1666 7.09127 15.1634C7.08407 15.1102 7.09928 15.1056 7.09718 15.0638L7.09692 15.0638ZM6.95887 13.5442C6.94524 13.4118 7.03702 13.3404 7.03458 13.539L6.95887 13.5442ZM7.06867 13.6692C7.06175 13.5717 7.11926 13.5536 7.13987 13.5982C7.14412 13.6826 7.10207 13.6667 7.06867 13.6692ZM7.29391 13.8197C7.24184 13.7947 7.20435 13.8751 7.18073 13.8274C7.18616 13.7171 7.23969 13.7112 7.28487 13.6875L7.29391 13.8197ZM7.35683 14.0514C7.33195 13.9852 7.28855 13.9793 7.23889 13.9933C7.2378 13.8881 7.36993 13.8674 7.35683 14.0514ZM7.39697 15.01C7.43065 15.0077 7.43144 15.1122 7.46679 15.1047C7.44206 15.1633 7.39796 15.1806 7.34546 15.1791C7.35646 15.1094 7.38863 15.0851 7.39697 15.01ZM7.38859 15.4415C7.40404 15.5595 7.35825 15.5445 7.31966 15.5457C7.32159 15.4028 7.356 15.4931 7.38859 15.4415ZM7.62239 16.4532C7.54342 16.5222 7.48197 16.5238 7.4231 16.4999C7.47852 16.4101 7.55532 16.4135 7.62239 16.4532ZM7.49277 15.6666C7.49256 15.5147 7.56373 15.592 7.58904 15.5939C7.5877 15.6375 7.57029 15.6471 7.57048 15.6944C7.53362 15.7208 7.52961 15.6399 7.49277 15.6666ZM7.57136 15.8932C7.52328 15.778 7.63876 15.8596 7.65947 15.8872C7.64731 16.044 7.58172 15.8289 7.57136 15.8932ZM7.52237 15.4857C7.52115 15.4902 7.52016 15.4943 7.51919 15.4987C7.51803 15.4929 7.51689 15.4874 7.51526 15.4822C7.50683 15.4779 7.49887 15.4731 7.4916 15.4672C7.47509 15.4974 7.45499 15.5196 7.46291 15.602C7.44871 15.5134 7.40796 15.5127 7.39896 15.4072C7.4159 15.3796 7.49148 15.3986 7.51524 15.4819C7.51761 15.483 7.51997 15.4841 7.52234 15.4852C7.53361 15.4417 7.54958 15.4076 7.54562 15.331C7.63505 15.3628 7.83141 15.4257 7.8879 15.3404C7.92708 15.4074 7.94444 15.3935 7.95998 15.4683C7.93004 15.395 7.87436 15.5665 7.85469 15.4091C7.76627 15.4813 7.61707 15.5276 7.52259 15.4852L7.52237 15.4857ZM7.82862 13.9199C7.83247 14.0023 7.78674 13.9325 7.77823 13.9234C7.78174 13.8557 7.83573 13.8976 7.83423 13.8198C7.89733 13.872 7.77869 13.8966 7.82836 13.9199L7.82862 13.9199ZM7.86833 14.3146C7.90524 14.4822 7.79962 14.3327 7.77208 14.3875C7.76625 14.2353 7.86499 14.3921 7.86833 14.3146ZM7.84353 13.952C7.83904 13.8678 7.88502 13.8705 7.90432 13.9148C7.90881 13.9989 7.8628 13.9957 7.84353 13.952ZM7.72732 13.4916C7.70354 13.4637 7.8289 13.4259 7.83656 13.4188C7.83652 13.4183 7.8365 13.418 7.83647 13.4175C7.83723 13.4174 7.83728 13.4182 7.83656 13.4188C7.87936 13.5797 7.77651 13.4781 7.72732 13.4916ZM7.69641 12.2999C7.69483 12.3995 7.66719 12.2706 7.64603 12.3034L7.63929 12.2049L7.67702 12.2023C7.6842 12.2552 7.66898 12.2596 7.67109 12.3016L7.69641 12.2999ZM7.64565 11.3757C7.63409 11.2849 7.69063 11.3415 7.68926 11.2732C7.70773 11.2941 7.71742 11.3428 7.72362 11.4036C7.69279 11.4103 7.66318 11.4126 7.64566 11.3759L7.64565 11.3757ZM7.69238 11.5047C7.67752 11.7077 7.6008 11.4787 7.51841 11.5497C7.51124 11.497 7.52643 11.4922 7.52429 11.4498C7.5047 11.4609 7.50039 11.4202 7.48431 11.4195C7.5601 11.2668 7.61492 11.5289 7.69262 11.5045L7.69238 11.5047ZM7.57259 12.3417C7.54594 12.2868 7.56752 12.2118 7.60131 12.2075C7.61074 12.2933 7.60644 12.3493 7.57259 12.3417ZM8.26433 15.481C8.26478 15.4169 8.20337 15.3819 8.18888 15.4862C8.18274 15.4485 8.16425 15.3716 8.15116 15.4888C8.0982 15.3766 8.04764 15.489 7.98282 15.4339C8.10662 15.2766 8.25319 15.3813 8.39381 15.3396C8.4124 15.5482 8.27539 15.3042 8.26433 15.481ZM8.16856 15.1892C8.16968 15.3059 8.09926 15.2471 8.07006 15.2293C8.07417 15.0959 8.12148 15.2298 8.16856 15.1892ZM8.03917 14.0378C8.06299 14.0886 8.04349 14.1901 8.01275 14.2057C8.00374 14.1112 7.9989 14.0256 8.03917 14.0378ZM8.06537 14.2349C8.09895 14.2461 8.11007 14.3306 8.1476 14.3288C8.14115 14.4427 8.09804 14.322 8.08908 14.3992C8.07448 14.3941 8.07999 14.3667 8.08682 14.3663C8.08454 14.3069 8.06663 14.2979 8.06512 14.235L8.06537 14.2349ZM8.10628 12.0071C8.09413 11.8927 8.15611 11.8653 8.17523 11.9031C8.17326 11.9412 8.15869 11.9885 8.15217 11.9378C8.13783 11.9439 8.14564 11.9985 8.14626 12.0374C8.13496 12.0209 8.12341 12.0046 8.10603 12.0071L8.10628 12.0071ZM8.32296 14.1181C8.31434 14.193 8.30339 14.2634 8.30103 14.3516L8.25064 14.3551C8.27026 14.2662 8.27614 14.1478 8.32296 14.1181ZM8.22593 13.7559C8.21015 13.804 8.1801 13.8816 8.155 13.8271C8.1505 13.7427 8.1928 13.7587 8.22593 13.7559ZM7.99333 11.65C8.00739 11.5692 8.06619 11.6293 8.06453 11.579C8.10997 11.6891 8.03029 11.6808 7.99333 11.65ZM8.15884 13.3293C8.15801 13.3655 8.13532 13.3536 8.13803 13.3969C8.15274 13.4297 8.16741 13.462 8.18254 13.4935C8.19154 13.5692 8.14858 13.5325 8.15159 13.5951C8.1357 13.5265 8.094 13.5416 8.08991 13.4335C8.1405 13.459 8.10054 13.2878 8.15859 13.3293L8.15884 13.3293ZM8.41097 15.4046C8.45311 15.2285 8.62377 15.3359 8.70879 15.3181C8.63597 15.5663 8.56699 15.3054 8.41097 15.4046ZM8.48011 13.7716C8.48852 13.6639 8.54205 13.7325 8.56597 13.7326C8.56571 13.8069 8.50486 13.7503 8.48011 13.7716ZM8.50957 14.072L8.47185 14.0746L8.46282 13.9427C8.4953 13.9303 8.49994 14.0093 8.50957 14.072ZM8.45326 13.011L8.39022 13.0153C8.38304 12.9624 8.39847 12.9575 8.3961 12.9155C8.42111 12.9278 8.4511 12.9237 8.45326 13.011ZM8.47109 13.6397C8.44152 13.6424 8.42999 13.5855 8.39337 13.6116C8.37607 13.4889 8.48309 13.5251 8.47109 13.6397ZM8.46592 13.0102C8.4411 12.889 8.53137 12.8737 8.54952 12.938C8.56822 13.0627 8.49289 12.9841 8.46592 13.0102ZM8.27179 10.1726L8.26502 10.0736C8.29786 10.1001 8.35155 10.0593 8.3599 10.1666C8.33163 10.1029 8.29931 10.1547 8.27179 10.1726ZM8.46776 12.1149C8.46978 12.0069 8.47658 11.9092 8.48517 11.8153C8.49605 11.8405 8.52192 12.1369 8.46776 12.1149ZM8.37529 12.983C8.33374 13.0859 8.26981 13.0884 8.20106 13.028C8.24085 12.9663 8.32293 12.8498 8.37529 12.983ZM7.94438 9.8302C7.95654 9.72914 8.00145 9.85377 8.03249 9.82418C8.03023 9.95101 7.96918 9.86183 7.94438 9.8302ZM7.97135 8.98992C7.91927 8.96499 7.88178 9.04539 7.85817 8.99766C7.8636 8.8874 7.91712 8.88144 7.9623 8.85775L7.97135 8.98992ZM7.99202 10.1584C8.01606 10.2013 8.04135 10.24 8.0537 10.32C7.98914 10.3023 7.95831 10.3573 7.90481 10.3636C7.90805 10.3142 7.91783 10.2787 7.92109 10.2297C7.95767 10.2625 7.98154 10.2469 7.99202 10.1584ZM7.93188 10.7593C7.94105 10.7037 7.98285 10.7197 8.00307 10.688C8.03417 10.8378 7.94893 10.7965 7.93188 10.7593ZM7.973 10.9885C7.93063 11.0941 7.94872 11.2768 7.91021 10.9928L7.973 10.9885ZM8.03129 10.9184C8.0551 10.9689 8.03557 11.0702 8.00486 11.086C8.02959 11.0162 7.96858 10.9201 8.03129 10.9184ZM7.74612 8.83972C7.73919 8.74226 7.79671 8.72408 7.81732 8.76871C7.82157 8.85313 7.77952 8.83718 7.74612 8.83972ZM7.89417 10.7621C7.88577 10.8698 7.83222 10.801 7.80831 10.8011C7.80859 10.727 7.86943 10.7834 7.89417 10.7621ZM7.71177 8.70954L7.63607 8.71472C7.62243 8.58236 7.71421 8.51095 7.71177 8.70954ZM8.01839 11.2838C7.97923 11.4513 7.91594 11.2959 7.85909 11.3611C7.87996 11.5471 7.99484 11.3561 8.0778 11.4122C8.07609 11.4505 8.0615 11.4975 8.05502 11.4474C8.03978 11.4812 8.06404 11.5012 8.03645 11.5478C7.89439 11.5164 7.84782 11.6834 7.71948 11.5365C7.71548 11.478 7.78359 11.4362 7.73352 11.3699C7.83251 11.3184 7.91438 11.2471 8.01866 11.284L8.01839 11.2838ZM7.77257 10.8363C7.72278 10.8224 7.71508 10.8995 7.66141 10.8773C7.64614 10.788 7.68195 10.8095 7.6777 10.7436C7.71827 10.7454 7.77172 10.7049 7.77257 10.8363ZM7.4725 8.72591C7.45573 8.59605 7.53896 8.68219 7.56875 8.65293C7.565 8.73942 7.50734 8.79272 7.4725 8.72591ZM7.57001 9.72354C7.54448 9.77056 7.51684 9.6417 7.51962 9.72698C7.46395 9.64939 7.57586 9.55245 7.57001 9.72354ZM7.35089 9.10868C7.36629 9.00282 7.44211 9.03274 7.48939 9.0992C7.47241 9.21916 7.40498 9.09989 7.35089 9.10868ZM7.3948 8.69816C7.38054 8.75001 7.33614 8.79629 7.30895 8.73735C7.32682 8.69365 7.37148 8.64735 7.3948 8.69816ZM7.42926 9.7001C7.32222 9.63772 7.41512 10.092 7.30656 9.94049C7.32097 9.84258 7.33335 9.68148 7.25303 9.71215C7.26568 9.68509 7.39642 9.50265 7.42926 9.7001ZM7.59539 14.4001C7.56758 14.4845 7.48964 14.3344 7.48873 14.5069C7.48111 14.4476 7.41154 14.2636 7.46027 14.2768C7.43469 14.1967 7.37126 14.2697 7.34684 14.2846C7.35185 14.1087 7.42989 14.2158 7.4831 14.2425C7.48776 14.2808 7.48432 14.3011 7.47494 14.3092C7.48892 14.3573 7.51144 14.3779 7.54249 14.3707C7.5524 14.2441 7.48587 14.3685 7.49576 14.2416C7.5395 14.26 7.57948 14.2903 7.59515 14.4004L7.59539 14.4001ZM7.49068 13.7398C7.44046 13.7493 7.37388 13.8656 7.32463 13.7183C7.32042 13.7163 7.31798 13.7178 7.31643 13.7212C7.31478 13.7305 7.3137 13.7407 7.31421 13.7519C7.31385 13.7392 7.31352 13.727 7.31643 13.7212C7.33332 13.6297 7.4508 13.6291 7.49068 13.7398ZM7.21378 12.4662C7.18149 12.4776 7.15904 12.458 7.15661 12.3704C7.18793 12.382 7.17985 12.3085 7.21713 12.333C7.22719 12.402 7.21451 12.4212 7.21351 12.466L7.21378 12.4662ZM6.87358 11.5613C6.88187 11.4854 6.95199 11.5437 6.98477 11.5208C6.97918 11.6026 6.90276 11.616 6.87358 11.5613ZM7.00049 13.0445C6.91814 13.2463 6.84928 13.1284 6.74493 13.1946L6.73815 13.0956C6.85048 13.0902 6.92791 13.0098 7.00049 13.0445ZM6.89132 13.4827C6.88782 13.5691 6.82991 13.6225 6.79507 13.5556C6.7783 13.4258 6.86152 13.5119 6.89132 13.4827ZM6.69999 14.9918C6.70332 15.0925 6.71742 15.2167 6.67806 15.2253C6.67116 15.1169 6.65703 14.9922 6.69999 14.9918ZM6.60672 14.3683C6.65431 14.3203 6.79806 14.3318 6.83106 14.3196C6.81974 14.4405 6.65402 14.3979 6.60672 14.3683ZM6.68827 13.099L6.69728 13.2306C6.59716 13.1764 6.59018 13.2975 6.49574 13.2444C6.53461 13.0393 6.6354 13.2519 6.68827 13.099ZM6.47542 12.9474C6.49817 12.8599 6.58525 12.7941 6.60941 12.8721C6.60874 12.9925 6.52064 12.9242 6.47542 12.9474ZM6.71762 13.5279C6.70336 13.5797 6.65896 13.626 6.63177 13.5671C6.64964 13.5234 6.6943 13.4771 6.71762 13.5279ZM6.58991 10.5532C6.58709 10.6793 6.54094 10.581 6.50407 10.5924C6.47673 10.5683 6.5776 10.4996 6.58991 10.5532ZM6.44448 9.53548L6.45577 9.70056C6.40448 9.67965 6.35616 9.65014 6.3105 9.61104C6.3399 9.50905 6.37869 9.57788 6.44448 9.53548ZM6.31186 9.44508C6.27227 9.35342 6.25959 9.38379 6.217 9.35237C6.22176 9.32533 6.22649 9.29779 6.22288 9.2525C6.26628 9.25843 6.32317 9.21995 6.35097 9.27681C6.36998 9.40219 6.29286 9.3197 6.31188 9.44534L6.31186 9.44508ZM7.1297 16.0895C7.0786 16.1086 7.08573 15.9376 7.06352 15.8621C7.10024 15.8893 7.11642 15.9846 7.1297 16.0895ZM7.08062 17.2201C7.07304 17.1911 7.06543 17.1616 7.05078 17.1557C7.07384 17.0949 7.10456 17.094 7.13664 17.1168C7.12056 17.1568 7.11252 17.2141 7.08062 17.2201ZM7.05287 16.2604C7.04315 16.1741 7.06294 16.1511 7.0965 16.1582C7.10626 16.2451 7.08643 16.2675 7.05287 16.2604ZM7.19903 16.5488C7.16843 16.5552 7.13886 16.558 7.12131 16.5208C7.12658 16.4492 7.19152 16.4168 7.19903 16.5488ZM7.15881 16.883C7.17111 16.8064 7.24558 16.8649 7.28238 16.8412C7.25374 16.9358 7.185 16.9089 7.15881 16.883ZM7.33722 18.1969C7.34043 18.0728 7.43528 18.1467 7.48386 18.1205C7.44821 18.2018 7.38868 18.2203 7.33722 18.1969ZM7.24741 16.5124C7.29786 16.4281 7.36201 16.4845 7.40646 16.4351C7.40783 16.6523 7.2891 16.5045 7.24741 16.5124ZM7.48371 17.1925C7.44508 17.1595 7.43509 17.0953 7.44483 16.996C7.50366 16.9932 7.47531 17.0883 7.48371 17.1925ZM7.53746 17.056C7.72943 17.1663 7.6076 17.1293 7.49612 17.1916C7.47577 17.0727 7.55068 17.1599 7.53746 17.056ZM7.66686 18.2074C7.63901 18.1462 7.65967 18.1247 7.65556 18.0423C7.69117 18.15 7.70148 18.0888 7.75046 18.1356C7.73961 18.1963 7.68665 18.1659 7.66686 18.2074ZM7.68273 17.1456C7.66269 17.0274 7.72921 17.0961 7.75366 17.0743C7.74283 17.1837 7.73124 17.1593 7.68273 17.1456ZM7.85872 17.498C7.84928 17.4122 7.85355 17.3557 7.8874 17.3633C7.91407 17.4184 7.8925 17.4937 7.85872 17.498ZM8.06164 17.3186L7.9986 17.3229C8.0278 17.2329 8.06506 17.1863 8.11766 17.2153C8.11515 17.3421 8.0454 17.1927 8.06139 17.3186L8.06164 17.3186ZM8.08855 16.7861C8.01053 16.8578 8.00292 16.6535 7.95821 16.7289L7.95144 16.6299L8.02689 16.6247C7.99101 16.7472 8.09858 16.6277 8.08855 16.7861ZM7.63557 16.4525C7.64598 16.3519 7.78198 16.4173 7.87034 16.3703C7.93588 16.3356 7.91753 16.3165 7.9815 16.3294C7.99415 16.3321 8.06423 16.2373 7.98737 16.2293C8.0549 16.1491 8.17792 16.3002 8.22439 16.18C8.21705 16.2845 8.23391 16.2671 8.22305 16.3462L8.27343 16.3428C8.28801 16.3364 8.27994 16.2818 8.2793 16.2426C8.3189 16.4348 8.41484 16.3275 8.46707 16.3956C8.36401 16.4732 8.23668 16.4859 8.08116 16.4884C7.94216 16.4906 7.77841 16.5214 7.63583 16.4525L7.63557 16.4525ZM8.18707 16.7463C8.19708 16.7028 8.31368 16.6521 8.31516 16.7706C8.24865 16.7502 8.23586 16.7938 8.18707 16.7463ZM8.4286 16.7628C8.38114 16.7236 8.47592 16.5993 8.39451 16.6326C8.38238 16.4851 8.43299 16.5445 8.45505 16.5954C8.46514 16.6425 8.41143 16.6793 8.44941 16.6952C8.44883 16.7314 8.42587 16.7192 8.4286 16.7628ZM8.47535 16.8921C8.46962 16.8381 8.54937 16.8326 8.55105 16.887C8.56153 17.0363 8.49355 16.9016 8.47535 16.8921ZM8.53186 16.4243C8.53807 16.344 8.54397 16.2629 8.55378 16.1905C8.60891 16.1822 8.55805 16.2716 8.57773 16.3548C8.74735 16.2796 8.87407 16.2765 8.99322 16.3263C8.87702 16.4869 8.6886 16.3579 8.53186 16.4243ZM9.00275 16.0937C8.97633 16.0459 8.96193 15.9581 8.92841 15.9329C8.86533 15.9108 8.82207 16.0964 8.77725 15.9433C8.7595 15.959 8.78495 15.9852 8.78404 16.0425C8.68583 15.9307 8.61654 16.1188 8.50477 16.0283C8.53536 15.9473 8.59303 15.9686 8.60215 15.7896C8.74608 15.7182 8.84603 15.9968 8.92728 15.7343C8.89465 15.8523 8.98593 15.8107 9.00161 15.8948C9.01473 15.8858 9.00575 15.8289 9.02241 15.827C9.0624 15.8576 9.1124 15.856 9.11142 16.0201C9.06297 16.0183 9.01987 16.0279 9.00249 16.0937L9.00275 16.0937ZM9.0712 16.3543C9.06464 16.2026 9.12183 16.3173 9.13198 16.3168C9.26502 16.3131 9.22452 16.3532 9.0712 16.3543ZM8.9735 14.3722C8.97174 14.2648 9.05368 14.3395 9.02273 14.1697C9.06412 14.2355 9.04541 14.3785 9.10748 14.2967C9.09368 14.4966 9.04183 14.2928 8.9735 14.3722ZM9.27749 16.0418L9.22711 16.0453C9.20855 15.9191 9.27869 15.9143 9.27749 16.0418ZM10.2721 13.8812C10.2521 13.763 10.3186 13.8317 10.343 13.81C10.3475 13.8944 10.3055 13.8784 10.2721 13.8812ZM10.6499 13.8554C10.6294 13.7456 10.6856 13.8015 10.7084 13.785C10.698 13.8717 10.6894 13.8906 10.6499 13.8554ZM10.6687 13.3901C10.7332 13.4043 10.7451 13.4034 10.8072 13.3806C10.8076 13.5653 10.7257 13.4053 10.6903 13.5209C10.6785 13.4927 10.6716 13.4476 10.6687 13.3901ZM10.8379 13.6436C10.8166 13.6855 10.7629 13.7306 10.7394 13.6834C10.7607 13.6415 10.8143 13.5961 10.8379 13.6436ZM10.7869 14.2479C10.7662 14.2211 10.7541 14.167 10.7505 14.0846C10.7708 14.0542 10.7801 13.9775 10.811 14.0471C10.8235 14.1584 10.7589 14.1031 10.7869 14.2479ZM10.9325 14.1011L10.9257 14.0021C10.9682 14.0279 10.9615 13.9488 10.9694 13.8999C10.9991 13.9482 10.97 14.1057 10.9325 14.1011ZM10.7233 13.817C10.7963 13.6981 10.9029 13.7765 10.9854 13.766C10.8893 13.8296 10.8123 13.8392 10.7233 13.817ZM11.058 13.5291C11.0375 13.5017 11.0146 13.4824 11.0112 13.3997C11.0379 13.3554 11.0351 13.4027 11.072 13.3625C11.0968 13.3865 11.0668 13.3985 11.0492 13.3971C11.0541 13.4871 11.0748 13.4623 11.0582 13.5291L11.058 13.5291ZM11.6848 11.5966C11.7619 11.6453 11.8543 11.5749 11.9137 11.6143C11.8625 11.6906 11.7766 11.6924 11.6916 11.6956L11.6848 11.5966ZM11.7688 12.4527C11.7748 12.5431 11.7147 12.535 11.6957 12.4911C11.6922 12.418 11.7481 12.4732 11.7688 12.4527ZM11.7638 12.7515L11.7684 12.8175C11.7594 12.8355 11.7502 12.8536 11.7329 12.853C11.7324 12.7157 11.6912 12.8905 11.6653 12.7915C11.6837 12.7432 11.7495 12.724 11.7639 12.7517L11.7638 12.7515ZM11.3629 11.884C11.2937 11.8256 11.2564 11.9114 11.174 11.8969C11.1984 11.7785 11.3006 11.7959 11.3629 11.884ZM11.3156 12.1192C11.2861 12.2416 11.2045 12.0976 11.1861 12.2609C11.1417 12.254 11.181 12.1714 11.1543 12.1636C11.1804 12.1323 11.2453 12.125 11.3159 12.1194L11.3156 12.1192ZM11.0637 12.1364L11.1141 12.133C11.1326 12.2592 11.0625 12.264 11.0637 12.1364ZM11.1847 13.7193C11.2034 13.8437 11.128 13.7652 11.1011 13.7912C11.1158 13.739 11.1455 13.7187 11.1847 13.7193ZM10.9932 11.8429C10.9688 11.9766 10.8802 11.9272 10.8213 11.921C10.8456 11.8237 10.9289 11.8541 10.9932 11.8429ZM10.8818 12.2486C10.8933 12.2262 10.8898 12.1715 10.915 12.1799C10.9227 12.2621 10.9023 12.2833 10.901 12.3468C10.87 12.354 10.8585 12.2975 10.8335 12.2852C10.8378 12.1885 10.8499 12.2467 10.8816 12.2489L10.8818 12.2486ZM10.7537 12.224C10.7824 12.2117 10.8025 12.2261 10.819 12.2529C10.8218 12.3155 10.7791 12.2785 10.7881 12.3542C10.7655 12.3481 10.7556 12.2995 10.754 12.224L10.7537 12.224ZM10.5922 12.2684C10.6578 12.198 10.6741 12.1941 10.7411 12.2249C10.7342 12.4027 10.6768 12.427 10.5989 12.3672L10.5922 12.2684ZM10.6353 12.5305C10.6415 12.6209 10.5814 12.6128 10.5621 12.5689C10.5742 12.4859 10.6014 12.5077 10.6353 12.5305ZM10.5669 12.2702C10.5541 12.4071 10.4947 12.3344 10.4455 12.3446C10.4701 12.2236 10.5232 12.3197 10.5669 12.2702ZM10.5496 13.4977C10.5181 13.4798 10.4889 13.454 10.4466 13.4714C10.4756 13.4163 10.5342 13.351 10.5496 13.4977ZM10.2156 10.8353C10.1971 10.889 10.1515 10.8842 10.1193 10.9083C10.1028 10.7787 10.1858 10.8648 10.2156 10.8353ZM10.1937 11.0688C10.1982 11.2102 10.0902 11.1072 10.047 11.1452C10.0586 10.9832 10.1602 11.1418 10.1937 11.0688ZM10.1581 12.3973L10.0323 12.4059C10.0413 12.329 10.161 12.246 10.1581 12.3973ZM10.2297 12.8897C10.1897 12.8994 10.1195 12.9482 10.0535 12.9018C10.0889 12.7875 10.1935 12.7587 10.2297 12.8897ZM9.96698 12.3773C9.97316 12.4677 9.91283 12.4596 9.89353 12.4154C9.89006 12.3424 9.946 12.3978 9.96698 12.3773ZM10.1617 13.5571C10.0911 13.466 10.0526 13.5996 9.95559 13.5048C9.99745 13.492 10.1255 13.3713 10.1617 13.5571ZM9.69005 11.1033C9.72565 11.211 9.73596 11.1497 9.78495 11.1965C9.7741 11.2573 9.72114 11.2268 9.70134 11.2683C9.6735 11.2072 9.69416 11.1857 9.69005 11.1033ZM9.67345 12.8945C9.67189 13.0093 9.61834 13.0112 9.57719 12.9675C9.608 12.9157 9.62543 12.8359 9.67345 12.8945ZM9.51832 11.1811C9.48268 11.2624 9.42315 11.281 9.37169 11.2576C9.3749 11.1335 9.46975 11.2074 9.51832 11.1811ZM9.72467 15.547C9.72478 15.6564 9.68031 15.5976 9.65122 15.5851C9.6538 15.4666 9.68185 15.5792 9.72467 15.547ZM9.4719 12.9083C9.46808 12.9937 9.43949 13.0257 9.39056 13.0133C9.37345 12.8822 9.43194 12.9153 9.4719 12.9083ZM9.36791 13.9762C9.36082 14.0807 9.3774 14.0628 9.36655 14.1421C9.32481 14.1307 9.31713 14.0074 9.2798 13.9822C9.28342 13.9608 9.33564 13.9209 9.36791 13.9762ZM9.24355 13.6903C9.28895 13.7814 9.22417 13.8718 9.19407 13.8929C9.18286 13.8629 9.16783 13.8441 9.15184 13.8297C9.17118 13.7591 9.25234 13.8225 9.24357 13.6906L9.24355 13.6903ZM9.18942 13.955C9.16103 13.9677 9.14071 13.9533 9.12435 13.9262C9.13059 13.8538 9.18787 13.8208 9.18942 13.955ZM9.2247 15.4486L9.23823 15.6464C9.21904 15.6411 9.17281 15.4339 9.2247 15.4486ZM8.90203 14.008L8.89526 13.909C8.98837 13.9762 9.03192 13.817 9.11171 13.9273C9.04436 14.0769 8.96789 13.9147 8.90203 14.008ZM9.082 13.7347C9.07771 13.8095 9.01224 13.7525 8.98348 13.7745C8.99623 13.6783 9.04222 13.7072 9.082 13.7347ZM8.84373 10.1999C8.88065 10.1075 8.94583 10.2682 8.989 10.2894C8.93672 10.4362 8.90187 10.2429 8.84373 10.1999ZM8.83346 8.99758C8.82896 8.91318 8.87126 8.92911 8.90439 8.92634C8.88861 8.97448 8.85856 9.05208 8.83346 8.99758ZM9.08735 9.32134C9.07763 9.23501 9.09743 9.21203 9.13098 9.21914C9.14074 9.30598 9.12091 9.32845 9.08735 9.32134ZM9.07183 8.78209C9.05453 8.65939 9.16156 8.69557 9.14955 8.8101C9.11998 8.81289 9.10845 8.75593 9.07183 8.78209ZM9.16419 9.15048C9.11309 9.16949 9.12022 8.99857 9.098 8.92301C9.13472 8.95026 9.15091 9.04556 9.16419 9.15048ZM9.15581 9.58197C9.16108 9.51039 9.22602 9.47796 9.23353 9.60998C9.20293 9.6164 9.17336 9.61919 9.15581 9.58197ZM9.15859 8.94227C9.167 8.8346 9.22053 8.90318 9.24445 8.90332C9.24419 8.97762 9.18334 8.92099 9.15859 8.94227ZM9.29391 8.64454C9.30025 8.73721 9.2541 8.56841 9.27309 8.71211C9.15697 8.51324 8.99245 8.75954 8.92175 8.57028C8.9044 8.62896 8.88416 8.66037 8.86204 8.67536C8.86544 8.73618 8.82728 8.70648 8.83007 8.76582C8.81964 8.72125 8.79839 8.71177 8.78382 8.68097C8.74931 8.67112 8.71249 8.65354 8.6746 8.65359C8.60516 8.65376 8.54755 8.85281 8.50579 8.68116C8.50075 8.68176 8.49538 8.68137 8.48918 8.68001C8.47674 8.73988 8.45795 8.72183 8.41676 8.77044C8.41575 8.84122 8.43929 8.83198 8.45901 8.83394C8.43055 8.87532 8.42631 8.96947 8.37994 8.97214C8.42312 9.09765 8.50707 8.88941 8.56205 8.86021C8.53036 8.8952 8.53726 9.04074 8.59641 8.99065C8.5986 9.03756 8.60053 9.08424 8.61585 9.08878C8.59964 9.17537 8.53747 9.16283 8.49678 9.19639C8.49585 9.13821 8.51314 9.11947 8.54264 9.12686C8.50266 8.98867 8.48189 9.27245 8.44187 9.13376C8.40948 9.16599 8.48542 9.20506 8.45091 9.26593C8.34597 9.08919 8.28992 9.12507 8.14181 9.18736C8.14103 9.04216 8.10302 9.0183 8.06549 8.99391C8.06341 8.98209 8.06219 8.97174 8.06129 8.96239C8.04103 8.95996 8.02116 8.94097 8.00385 8.88874C7.99965 8.88673 7.9972 8.88818 7.99565 8.89159C7.994 8.90086 7.99292 8.91111 7.99343 8.92227C7.99307 8.90957 7.99276 8.89764 7.99565 8.89159C7.99789 8.87973 8.00178 8.86955 8.00703 8.86079C8.01087 8.83891 8.01438 8.81577 8.01312 8.78254C8.00335 8.8033 7.99448 8.82604 7.97426 8.82437C7.9539 8.78328 7.956 8.66892 7.93563 8.62783C7.85673 8.63832 7.84512 8.7401 7.78222 8.60526C7.86416 8.52384 7.92692 8.57475 8.01701 8.52331C7.9929 8.59848 8.0301 8.65138 8.03281 8.75422C8.02648 8.75847 8.02163 8.76567 8.01738 8.7741C8.03038 8.79306 8.0502 8.80773 8.04994 8.76297C8.06014 8.75592 8.06272 8.77507 8.06483 8.79477L8.06691 8.82515C8.08417 8.82448 8.10259 8.82983 8.11941 8.8414C8.12138 8.79955 8.14426 8.80307 8.13847 8.74445C8.1173 8.77337 8.0879 8.78988 8.07028 8.75166C8.08815 8.70796 8.13279 8.6614 8.15612 8.71246C8.15503 8.71508 8.15392 8.71745 8.15281 8.71981C8.17202 8.74038 8.18477 8.83006 8.18817 8.75326C8.22704 8.77858 8.18785 8.86012 8.19945 8.91809C8.18897 8.92492 8.18666 8.90599 8.18453 8.88604C8.17441 8.90174 8.16397 8.91645 8.16373 8.95386C8.15381 8.9464 8.15085 8.93286 8.15034 8.91789C8.14028 8.92341 8.12988 8.93125 8.11919 8.93859C8.16464 9.00798 8.19646 8.87073 8.23328 9.04831C8.2686 9.0403 8.28156 8.98421 8.31715 8.97643C8.31154 8.94655 8.2552 8.89266 8.26449 8.94671C8.23517 8.89733 8.28826 8.81077 8.32276 8.87633C8.31504 8.76341 8.29041 8.88312 8.27603 8.74725C8.24801 8.74306 8.23784 8.77657 8.24506 8.84858C8.20073 8.73231 8.2596 8.60007 8.28778 8.54726C8.32032 8.52087 8.31759 8.61111 8.34267 8.60965C8.35858 8.50757 8.60145 8.46196 8.63458 8.62275C8.67682 8.60434 8.68586 8.45389 8.71029 8.61757C8.73549 8.60669 8.72933 8.52774 8.73897 8.48282C8.76106 8.49326 8.7825 8.50553 8.8046 8.51623C8.80911 8.49659 8.81722 8.4851 8.83729 8.4995C8.83704 8.51452 8.83292 8.52116 8.82849 8.52706C8.84184 8.53251 8.85538 8.53718 8.86933 8.54029C8.94362 8.34341 9.11325 8.71083 9.20485 8.45095C9.24081 8.54897 9.28042 8.51064 9.31803 8.4432C9.37632 8.54784 9.25522 8.58843 9.29387 8.64404L9.29391 8.64454ZM8.18952 8.22278C8.23403 8.28206 8.26136 8.14613 8.28216 8.28284C8.32851 8.26135 8.34497 8.17475 8.34205 8.04649C8.38986 8.09461 8.39705 8.02492 8.44509 8.07277C8.43918 8.31356 8.56817 8.08698 8.61995 8.22666C8.61518 8.25369 8.61044 8.28099 8.61406 8.32652C8.53407 8.37321 8.50142 8.31235 8.45275 8.37063C8.4316 8.40362 8.43198 8.18228 8.42291 8.30628C8.37146 8.25333 8.44653 8.24997 8.44145 8.20555C8.40595 8.11792 8.36439 8.25407 8.40009 8.34091C8.31436 8.30735 8.17326 8.47955 8.10592 8.29464C8.12899 8.3419 8.21059 8.35591 8.18951 8.22253L8.18952 8.22278ZM8.32425 7.47408L8.31752 7.37558L8.35524 7.373C8.36242 7.42593 8.3472 7.43028 8.34932 7.47236L8.37464 7.47063C8.37464 7.47063 8.37478 7.47266 8.3746 7.47369C8.41999 7.4047 8.4844 7.50586 8.5407 7.43637C8.50368 7.57576 8.43362 7.50348 8.35632 7.51513C8.35754 7.51072 8.35905 7.5068 8.36058 7.50314C8.35045 7.48882 8.3365 7.45594 8.32427 7.47433L8.32425 7.47408ZM8.41224 6.54033C8.51123 6.48879 8.5931 6.41755 8.69737 6.45443C8.65821 6.62195 8.59492 6.46652 8.53808 6.53172C8.55895 6.71777 8.67383 6.52675 8.75678 6.58289C8.75508 6.62117 8.74049 6.66821 8.734 6.61803C8.71877 6.65189 8.74303 6.67185 8.71544 6.71851C8.57338 6.68702 8.5268 6.85403 8.39847 6.70713C8.39446 6.64864 8.46258 6.60684 8.41251 6.54056L8.41224 6.54033ZM8.58894 6.16345L8.65173 6.15916C8.60936 6.26483 8.62745 6.44751 8.58894 6.16345ZM8.71028 6.08901C8.73408 6.13953 8.71456 6.24084 8.68384 6.25668C8.70857 6.18681 8.64756 6.09076 8.71028 6.08901ZM8.73473 8.05269C8.73806 8.15346 8.75215 8.27765 8.7128 8.28619C8.70589 8.17779 8.69177 8.05309 8.73473 8.05269ZM8.64145 7.42923C8.68904 7.3812 8.83279 7.39273 8.86579 7.38055C8.85447 7.5014 8.68876 7.45881 8.64145 7.42923ZM8.67179 6.82045C8.68585 6.73961 8.74465 6.79969 8.743 6.74944C8.78843 6.85953 8.70875 6.85125 8.67179 6.82045ZM8.20418 8.61912C8.19292 8.72979 8.16861 8.55288 8.13913 8.5905L8.13461 8.52442C8.14356 8.50651 8.15254 8.48911 8.1701 8.48918L8.17911 8.62084L8.20418 8.61912ZM8.12627 8.64786C8.09834 8.64494 8.09347 8.56641 8.08967 8.48476C8.13162 8.45849 8.14264 8.59713 8.12627 8.64786ZM9.35466 8.60681C9.35659 8.46397 9.391 8.55421 9.4236 8.50263C9.43905 8.62062 9.39325 8.60569 9.35466 8.60681ZM9.38021 8.24028C9.38604 8.20274 9.3981 8.17825 9.40928 8.15205C9.37467 8.17045 9.3258 8.14403 9.27046 8.17172C9.26463 8.1126 9.28114 8.10104 9.27383 8.03871C9.34963 8.06099 9.41671 8.0302 9.45256 8.05955C9.4513 8.06727 9.45 8.07422 9.44866 8.08067C9.46719 8.10612 9.47345 8.17157 9.50153 8.16558C9.4768 8.22426 9.43268 8.24126 9.38019 8.24002L9.38021 8.24028ZM9.50723 8.12246C9.51856 8.02781 9.54508 8.07713 9.60348 8.04948C9.62023 8.17908 9.53701 8.09295 9.50723 8.12246ZM9.87801 7.01291C9.87353 6.92877 9.9195 6.93147 9.93881 6.97568C9.94329 7.05983 9.89728 7.05662 9.87801 7.01291ZM10.0472 7.26666C10.0382 7.17213 10.0334 7.08648 10.0737 7.09874C10.0975 7.14951 10.078 7.25107 10.0472 7.26666ZM10.0491 6.42783C10.0523 6.30373 10.1472 6.37762 10.1958 6.3514C10.1601 6.4327 10.1006 6.45128 10.0491 6.42783ZM10.1956 5.42343C10.157 5.39046 10.147 5.32628 10.1567 5.22691C10.2158 5.22414 10.1872 5.3192 10.1956 5.42343ZM10.2083 5.42256C10.1879 5.30364 10.2628 5.39085 10.2496 5.28695C10.4416 5.39719 10.3198 5.36025 10.2083 5.42256ZM10.1355 4.7313C10.191 4.64153 10.2678 4.64492 10.3348 4.68459C10.2559 4.75359 10.1944 4.75525 10.1355 4.7313ZM10.205 3.89803C10.2047 3.74618 10.2759 3.82347 10.3012 3.8253C10.2999 3.86889 10.2825 3.87848 10.2827 3.92578C10.2458 3.95221 10.2418 3.87134 10.205 3.89803ZM10.6631 4.86106L10.7386 4.8559C10.7027 4.97842 10.8102 4.85888 10.8002 5.01728C10.7222 5.08901 10.7146 4.88476 10.6699 4.96006L10.6631 4.86106ZM10.5993 5.59448C10.626 5.64964 10.6044 5.72489 10.5706 5.72923C10.5612 5.64339 10.5655 5.58688 10.5993 5.59448ZM10.4656 5.3055C10.4547 5.41486 10.4432 5.39047 10.3946 5.37674C10.3746 5.25856 10.4411 5.32727 10.4656 5.3055ZM10.2835 4.12465C10.2355 4.00939 10.3509 4.09104 10.3717 4.11862C10.3595 4.27539 10.2939 4.06034 10.2835 4.12465ZM11.0351 2.34953C11.0265 2.4244 11.0156 2.49485 11.0132 2.58303L10.9628 2.58648C10.9824 2.49763 10.9883 2.37919 11.0351 2.34953ZM10.8807 3.42062C10.8819 3.5373 10.8114 3.47852 10.7822 3.46068C10.7864 3.32736 10.8337 3.46148 10.8807 3.42062ZM11.1062 3.57104C11.1248 3.77964 10.9878 3.53565 10.9768 3.71244C10.9772 3.6483 10.9158 3.61333 10.9013 3.7176C10.8952 3.67986 10.8767 3.60303 10.8636 3.72018C10.8106 3.60806 10.7601 3.72039 10.6953 3.6653C10.8191 3.50802 10.9656 3.61272 11.1062 3.57104ZM10.8105 4.05553C10.8057 4.08256 10.801 4.10985 10.8046 4.15539C10.8236 4.21438 10.8722 4.17671 10.8972 4.2152C10.927 4.17068 10.932 4.14413 10.9113 4.04863C10.9596 4.01149 10.9707 4.09595 10.9935 4.14247C11.0378 4.13588 10.9592 4.03518 10.9994 4.04261C11.0368 4.02784 11.033 4.14816 11.0484 4.20485C10.9629 4.20053 10.8922 4.39182 10.7964 4.22209C10.7787 4.2378 10.8041 4.26404 10.8032 4.32134C10.7782 4.34289 10.7503 4.17921 10.7483 4.25871C10.7154 4.25307 10.7619 4.20079 10.7393 4.12654L10.714 4.12827C10.699 4.16262 10.723 4.18234 10.6954 4.229C10.65 4.10873 10.7176 3.98099 10.81 4.05556L10.8105 4.05553ZM10.2277 3.71382C10.2301 3.71493 10.2324 3.71604 10.2348 3.71715C10.2461 3.67365 10.2621 3.63948 10.2581 3.56293C10.3475 3.59472 10.5439 3.6576 10.6004 3.57233C10.6396 3.63935 10.6569 3.62544 10.6725 3.70019C10.6425 3.62694 10.5868 3.79838 10.5672 3.641C10.4787 3.71319 10.3295 3.75951 10.2351 3.71714C10.2338 3.72155 10.2329 3.72568 10.2319 3.73033C10.2307 3.72455 10.2296 3.71904 10.228 3.71381C10.2195 3.70955 10.2116 3.70475 10.2043 3.69889C10.1878 3.72902 10.1677 3.75125 10.1756 3.83364C10.1614 3.74507 10.1207 3.7443 10.1117 3.63883C10.1286 3.61122 10.2042 3.63022 10.228 3.71355L10.2277 3.71382ZM10.101 3.67289C10.1165 3.79088 10.0707 3.77595 10.0321 3.77707C10.034 3.63422 10.0684 3.72447 10.101 3.67289ZM10.1184 4.66608C10.1197 4.88323 10.001 4.73542 9.95931 4.74336C10.0098 4.65901 10.0739 4.71542 10.1184 4.66608ZM9.99429 5.07242C9.96566 5.16697 9.89692 5.14013 9.87072 5.1142C9.88303 5.03755 9.9575 5.09605 9.99429 5.07242ZM9.91094 4.77999C9.88035 4.7864 9.85078 4.78919 9.83322 4.75198C9.8385 4.68039 9.90344 4.64797 9.91094 4.77999ZM9.84162 4.32074C9.79052 4.33975 9.79765 4.16883 9.77544 4.09327C9.81215 4.12052 9.82834 4.21582 9.84162 4.32074ZM9.80842 4.3894C9.81816 4.47599 9.79834 4.49871 9.76479 4.4916C9.75506 4.40526 9.77486 4.38229 9.80842 4.3894ZM9.84856 5.34797C9.83247 5.38799 9.82443 5.44526 9.79254 5.45126C9.78496 5.42227 9.77734 5.39277 9.7627 5.38691C9.78575 5.32606 9.81648 5.32523 9.84856 5.34797ZM9.86875 6.88127C9.93184 6.93343 9.81321 6.95808 9.86288 6.98139C9.86674 7.0638 9.821 6.99392 9.81249 6.98483C9.81601 6.91718 9.87 6.95903 9.8685 6.88129L9.86875 6.88127ZM9.9026 7.37601C9.93951 7.54367 9.83389 7.3942 9.80635 7.44899C9.80051 7.29676 9.89926 7.45358 9.9026 7.37601ZM9.66645 5.45989C9.61417 5.60668 9.57932 5.41345 9.52117 5.37036C9.5581 5.27804 9.62328 5.43868 9.66645 5.45989ZM9.51807 7.30311C9.52273 7.34146 9.51929 7.36179 9.50992 7.36981C9.5239 7.41795 9.54642 7.43854 9.57747 7.43133C9.58738 7.30473 9.52084 7.4291 9.53073 7.30225C9.57447 7.32062 9.61445 7.35096 9.63012 7.46105C9.60231 7.54537 9.52438 7.39528 9.52346 7.56781C9.51585 7.50855 9.44628 7.32456 9.49501 7.33776C9.46943 7.2576 9.40599 7.33062 9.38157 7.34552C9.38659 7.16966 9.46463 7.27675 9.51784 7.30338L9.51807 7.30311ZM9.39108 7.11262C9.3662 7.0464 9.3228 7.04047 9.27314 7.05455C9.27205 6.94931 9.40418 6.92857 9.39108 7.11262ZM9.35649 7.34698C9.3587 7.39415 9.36086 7.44055 9.37592 7.44512C9.35921 7.56887 9.31937 7.49605 9.30474 7.51638C9.26886 7.45677 9.30669 7.39618 9.33794 7.44772C9.32754 7.41459 9.3065 7.41578 9.30585 7.35045C9.27413 7.34779 9.27043 7.40527 9.24731 7.42059C9.30336 7.48137 9.25559 7.58995 9.22313 7.62117C9.25469 7.56941 9.19212 7.48771 9.22449 7.45522C9.19223 7.34805 9.13213 7.36564 9.10656 7.39715C9.08308 7.23239 9.278 7.27426 9.35622 7.34675L9.35649 7.34698ZM9.14597 7.28533C9.14799 7.17733 9.15479 7.07969 9.16337 6.98574C9.17426 7.01095 9.20013 7.30731 9.14597 7.28533ZM8.94323 5.24405C8.97607 5.27054 9.02975 5.22973 9.03811 5.33702C9.00984 5.27332 8.97752 5.32514 8.95 5.34305L8.94323 5.24405ZM9.07431 8.08593C9.09668 8.09687 9.12276 8.09508 9.12971 8.15566C9.13118 8.14742 9.13231 8.13793 9.13143 8.12502C9.13455 8.12608 9.13742 8.12715 9.14055 8.12821C9.14787 8.05674 9.21261 8.05485 9.22747 8.10853C9.2313 8.13472 9.23092 8.15153 9.22787 8.16268C9.25213 8.17145 9.278 8.17782 9.31215 8.17879C9.28711 8.311 9.18298 8.22782 9.12552 8.22463C9.12292 8.20522 9.12332 8.19248 9.12464 8.18196L9.06817 8.18582C9.06099 8.13289 9.07643 8.12802 9.07406 8.08595L9.07431 8.08593ZM9.05377 8.15374C9.01222 8.25655 8.94829 8.25914 8.87954 8.19872C8.91933 8.13699 9.00141 8.02046 9.05377 8.15374ZM8.85344 7.0736C8.85147 7.11164 8.8369 7.15893 8.83038 7.10825C8.81604 7.11432 8.82385 7.16898 8.82447 7.20786C8.81317 7.19133 8.80162 7.17508 8.78424 7.17754C8.77209 7.06314 8.83406 7.03575 8.85319 7.07362L8.85344 7.0736ZM8.59982 5.40033C8.63641 5.43319 8.66027 5.41756 8.67075 5.32908C8.6948 5.37195 8.72009 5.41067 8.73243 5.49072C8.66788 5.473 8.63705 5.52802 8.58354 5.53423C8.58678 5.48491 8.59656 5.44939 8.59982 5.40033ZM8.6818 5.85871C8.7129 6.00845 8.62766 5.96722 8.61062 5.92998C8.61979 5.8744 8.66158 5.89037 8.6818 5.85871ZM8.57289 5.93256C8.56448 6.04023 8.51093 5.97139 8.48703 5.9715C8.48731 5.89746 8.54814 5.95384 8.57289 5.93256ZM8.35642 5.91404C8.39699 5.91585 8.45043 5.8753 8.45129 6.00676C8.40149 5.99287 8.39379 6.06997 8.34012 6.04769C8.32486 5.95843 8.36067 5.97989 8.35642 5.91404ZM8.36721 6.44369C8.38569 6.46456 8.39538 6.51324 8.40158 6.57413C8.37074 6.58081 8.34114 6.58309 8.32362 6.54639C8.31207 6.4556 8.3686 6.51228 8.36723 6.44394L8.36721 6.44369ZM8.37035 6.67547C8.3555 6.87847 8.27877 6.64943 8.19638 6.72044C8.18921 6.66777 8.2044 6.66291 8.20227 6.62058C8.18267 6.63158 8.17836 6.59092 8.16229 6.59024C8.23807 6.43752 8.29289 6.69959 8.37059 6.6752L8.37035 6.67547ZM8.27835 7.12286C8.24129 7.15007 8.24784 7.03388 8.21078 7.06109C8.21219 6.99613 8.29509 6.9958 8.27835 7.12286ZM8.12217 7.43169C8.13943 7.44221 8.14616 7.48855 8.16466 7.49492C8.16189 7.53632 8.15309 7.56388 8.1312 7.5636C8.15502 7.63294 8.16046 7.53769 8.1965 7.5922C8.21277 7.58091 8.20123 7.50895 8.20013 7.45942C8.2135 7.46156 8.22648 7.46906 8.23973 7.47681C8.23295 7.4297 8.25204 7.38159 8.27901 7.37796C8.28502 7.43224 8.28561 7.47443 8.27642 7.49618C8.29679 7.50394 8.31793 7.50427 8.34061 7.48262C8.34256 7.5148 8.32693 7.50951 8.31781 7.51751C8.30943 7.62543 8.36031 7.54004 8.35192 7.64796C8.24722 7.64953 8.09611 7.57872 8.07129 7.79969C8.04046 7.80638 8.01087 7.80892 7.99359 7.77194C8.00066 7.66716 7.98949 7.69718 7.98006 7.5742C7.94603 7.55643 7.93564 7.59046 7.9491 7.67578C7.93889 7.68258 7.93632 7.66368 7.93419 7.64373L7.90913 7.64544C7.92562 7.40316 8.07357 7.55788 8.12217 7.43169ZM8.08234 8.32932C8.06302 8.41129 7.94855 8.37409 7.89571 8.37516C7.9294 8.25788 8.0198 8.34098 8.08234 8.32932ZM7.89534 7.50342C7.9054 7.57243 7.89272 7.59162 7.89172 7.63646C7.85943 7.64782 7.83672 7.62826 7.83454 7.54065C7.86586 7.55224 7.85779 7.47877 7.89507 7.50319L7.89534 7.50342ZM7.81447 7.18767C7.7545 7.29276 7.6655 7.19659 7.60929 7.33424C7.62399 7.28516 7.61902 7.20511 7.57719 7.23697C7.57976 7.12207 7.77447 7.18685 7.81421 7.18769L7.81447 7.18767ZM7.67451 8.21325C7.69763 8.19793 7.72338 8.19871 7.74595 8.22006C7.73169 8.32025 7.70097 8.26155 7.65916 8.25652C7.58494 8.39871 7.51892 8.30377 7.42287 8.36478L7.41609 8.26578C7.52639 8.26052 7.60302 8.18329 7.67451 8.21325ZM7.50013 7.77263C7.54086 7.74695 7.55001 7.82493 7.55954 7.9011C7.54414 8.00314 7.51438 7.81363 7.50916 7.90455C7.47621 7.89891 7.52249 7.84665 7.50013 7.77263ZM7.47756 7.44272C7.50551 7.50542 7.52434 7.44969 7.55327 7.43754C7.56269 7.60504 7.44998 7.57129 7.40886 7.54662C7.41888 7.42155 7.51299 7.64075 7.47756 7.44272ZM7.43125 7.93328C7.44179 7.93866 7.44616 7.96533 7.45882 7.96446C7.45819 7.99249 7.46578 7.99553 7.47375 7.99676C7.44481 8.04224 7.37766 8.1056 7.33748 8.0389C7.32739 7.87272 7.44037 8.11861 7.4315 7.93326L7.43125 7.93328ZM7.20618 7.36157C7.21474 7.4607 7.24561 7.71856 7.3695 7.71492C7.36017 7.89464 7.27901 7.83864 7.22148 7.95704C7.15145 7.89646 7.20917 7.90726 7.1553 7.72957C7.17347 7.73113 7.19138 7.7327 7.19077 7.69408C7.205 7.70125 7.20387 7.75907 7.2206 7.75818C7.23371 7.74914 7.22472 7.69201 7.24141 7.69061C7.18897 7.63798 7.23041 7.52983 7.16707 7.52984C7.16513 7.48292 7.1627 7.43628 7.14764 7.43171C7.14125 7.29376 7.19704 7.46598 7.20591 7.36133L7.20618 7.36157ZM7.14202 7.53181C7.11649 7.57884 7.08885 7.44998 7.09164 7.53526C7.04577 7.47836 7.15055 7.36639 7.14202 7.53181ZM6.96078 7.84235C6.99464 7.8502 6.99893 7.79395 6.9895 7.7081C7.05187 7.77939 7.06639 7.75372 7.13025 7.73154C7.13064 7.81165 7.15819 7.80162 7.15418 7.89551C7.06673 7.79211 7.04596 7.84186 6.95037 7.87613C6.94619 7.84843 6.95305 7.84465 6.96078 7.84235ZM6.86767 8.14711C6.86637 8.21003 6.89848 8.34469 6.85364 8.31392C6.84095 8.23619 6.82388 8.16155 6.86767 8.14711ZM6.93612 8.40774C6.92927 8.6051 6.84374 8.35886 6.78948 8.48417C6.78492 8.34305 6.89266 8.44557 6.93612 8.40774ZM6.93589 8.77254C6.93402 8.85305 6.8933 8.84897 6.86696 8.87672L6.85794 8.74481C6.89479 8.71837 6.90634 8.77558 6.93591 8.7728L6.93589 8.77254ZM6.65373 8.162C6.68409 8.37513 6.76928 8.15918 6.79564 8.38454C6.7423 8.32256 6.71349 8.33648 6.65489 8.3611C6.67571 8.27878 6.66805 8.28948 6.65399 8.16198L6.65373 8.162ZM6.5261 8.75784C6.62502 8.85028 6.71748 8.58805 6.78255 8.80669C6.75286 8.81152 6.71869 8.84006 6.68413 8.86659C6.7313 8.87557 6.79724 8.84664 6.81562 8.77696C6.81044 8.76815 6.80356 8.7643 6.79296 8.77291C6.78538 8.71416 6.80021 8.70424 6.80335 8.73887C6.81543 8.73703 6.81047 8.69794 6.81149 8.67192C6.85344 8.64565 6.86447 8.78455 6.84786 8.83555C6.84305 8.83588 6.83927 8.83257 6.83612 8.82745C6.85152 8.9373 6.84566 9.05243 6.83291 9.11156C6.94428 9.06985 7.0992 9.08851 7.236 9.08398C7.26443 9.08305 7.317 8.96651 7.32862 9.14378C7.17263 9.29538 7.00023 9.04364 6.88644 9.33989C6.83873 9.34901 6.88004 9.31336 6.86701 9.24176C6.85704 9.26711 6.85212 9.30306 6.84871 9.34247C6.84669 9.14928 6.76612 9.32141 6.73439 9.15137C6.72472 9.15864 6.72399 9.18515 6.71133 9.18601C6.72953 9.24022 6.71531 9.26282 6.70236 9.28914C6.71298 9.28079 6.72541 9.27663 6.73869 9.27368C6.72818 9.31332 6.71793 9.39034 6.70177 9.41815C6.70177 9.41815 6.70179 9.41841 6.7018 9.41866C6.7018 9.41866 6.7018 9.41866 6.70179 9.41841C6.69359 9.43245 6.68402 9.43387 6.6723 9.41127C6.67095 9.39152 6.67107 9.37472 6.67238 9.36039C6.65135 9.29467 6.65641 9.21241 6.62912 9.09243C6.67764 9.10259 6.80017 9.18324 6.81573 9.04634C6.81238 8.8858 6.64865 8.91684 6.66457 9.05668C6.62119 9.02124 6.62614 8.9746 6.63208 8.90144C6.59106 8.92282 6.55164 8.92297 6.52073 8.85793C6.51353 8.80475 6.52874 8.80014 6.52635 8.75783L6.5261 8.75784ZM6.25159 8.44516C6.26265 8.45051 6.26261 8.43144 6.262 8.41138C6.27423 8.41156 6.27463 8.45096 6.27915 8.47609C6.31356 8.47705 6.30071 8.41942 6.32954 8.47265C6.333 8.54567 6.27708 8.49048 6.2561 8.51099L6.25159 8.44516ZM6.4825 8.86054C6.47642 8.86834 6.46982 8.87591 6.46271 8.88352C6.48081 8.88788 6.51621 8.93303 6.5396 8.89937C6.53678 9.02549 6.49062 8.92714 6.45375 8.93857C6.45103 8.91739 6.45035 8.9037 6.45155 8.89522C6.38085 8.9662 6.27613 9.01941 6.1847 8.94731C6.26983 8.80845 6.35336 8.7689 6.48226 8.86081L6.4825 8.86054ZM6.58521 15.1657C6.58045 15.1928 6.5757 15.2201 6.57933 15.2656C6.49934 15.3123 6.46668 15.2514 6.41801 15.3097C6.39687 15.3427 6.39724 15.1214 6.38817 15.2454C6.33672 15.1924 6.41179 15.1891 6.40672 15.1446C6.37121 15.057 6.32965 15.1931 6.36536 15.28C6.27962 15.2464 6.13852 15.4186 6.07118 15.2337C6.09425 15.281 6.17585 15.295 6.15477 15.1616C6.19927 15.2209 6.2266 15.085 6.2474 15.2217C6.29376 15.2002 6.31022 15.1136 6.30729 14.9853C6.3551 15.0334 6.36229 14.9638 6.41034 15.0116C6.40442 15.2524 6.53341 15.0258 6.5852 15.1655L6.58521 15.1657ZM6.06926 8.92189L6.11964 8.91844C6.10354 8.95821 6.11433 9.05642 6.07826 9.05355L6.06926 8.92189ZM6.50596 14.3755C6.46895 14.5149 6.39888 14.4426 6.32158 14.4542C6.36674 14.3112 6.44144 14.4549 6.50596 14.3755ZM6.30665 14.4219C6.3086 14.4541 6.29297 14.4488 6.28385 14.4568C6.27547 14.5647 6.32635 14.4793 6.31796 14.5872C6.21326 14.5888 6.06215 14.518 6.03733 14.739C6.0065 14.7457 5.97691 14.7482 5.95963 14.7112C5.9667 14.6064 5.95553 14.6365 5.9461 14.5135C5.91207 14.4957 5.90168 14.5297 5.91514 14.6151C5.90493 14.6219 5.90236 14.603 5.90023 14.583L5.87517 14.5847C5.89166 14.3424 6.03961 14.4972 6.08821 14.371C6.10547 14.3815 6.1122 14.4278 6.1307 14.4342C6.12793 14.4756 6.11913 14.5032 6.09724 14.5029C6.12106 14.5722 6.1265 14.477 6.16254 14.5315C6.17881 14.5202 6.16727 14.4482 6.16617 14.3987C6.21121 14.4063 6.25486 14.4718 6.3069 14.4219L6.30665 14.4219ZM5.99433 14.2405C5.98737 14.1314 6.02165 14.112 6.06099 14.1032C6.04499 14.163 6.02976 14.3086 5.99433 14.2405ZM6.17016 13.6651C6.14506 13.6663 6.14803 13.5758 6.11525 13.6024C6.10767 13.5437 6.12251 13.5337 6.12564 13.5684C6.13773 13.5665 6.13276 13.5274 6.13378 13.5014C6.17574 13.4752 6.18677 13.6141 6.17016 13.6651ZM6.24437 14.0619C6.20731 14.0891 6.21386 13.9729 6.1768 14.0001C6.17821 13.9352 6.26112 13.9348 6.24437 14.0619ZM6.10906 11.8461C6.11253 11.9191 6.05658 11.8637 6.03558 11.8839C6.01564 11.7634 6.09811 11.8199 6.10906 11.8461ZM5.90687 11.2965C5.92565 11.2809 5.91065 11.1919 5.95275 11.2272C5.95476 11.3718 5.85797 11.3031 5.82326 11.3683C5.78937 11.3266 5.8288 11.2448 5.80159 11.2375C5.82868 11.2133 5.90522 11.146 5.90687 11.2965ZM5.8722 12.8236C5.95961 12.6958 6.01947 12.7825 6.13429 12.7726C6.12227 12.8052 6.05711 12.8641 6.04843 12.8115C6.03295 12.8345 6.02995 12.8835 6.03238 12.9452C5.98159 12.8087 5.96168 13.1052 5.8708 12.989C5.87884 12.9503 5.8815 12.9 5.8722 12.8236ZM6.10485 13.6362C6.0251 13.6493 5.91259 13.834 5.84278 13.6874C5.83558 13.6343 5.85078 13.6297 5.84839 13.5873C5.94731 13.6798 6.03977 13.4176 6.10485 13.6362ZM5.82268 13.0257C5.78425 12.9212 5.74195 13.0912 5.6991 13.0672C5.66081 13.0207 5.68226 12.9401 5.64557 12.8388C5.69729 12.9218 5.67323 12.8489 5.73369 12.8328C5.73123 12.8007 5.71647 12.808 5.70637 12.8016C5.70148 12.6707 5.74702 12.8233 5.75223 12.7321C5.78272 12.7799 5.74864 12.8135 5.77619 12.8963L5.80125 12.8946C5.81557 12.8883 5.80776 12.8336 5.80714 12.7947C5.87964 12.7984 5.81768 12.9265 5.82294 13.0256L5.82268 13.0257ZM5.72352 12.502C5.73598 12.4536 5.76254 12.4365 5.79469 12.4305C5.79611 12.5665 5.76454 12.4992 5.72352 12.502ZM5.64588 11.1813C5.66551 11.1708 5.66978 11.2109 5.68587 11.2119C5.66861 11.283 5.66418 11.3113 5.687 11.4105C5.6244 11.4511 5.65532 11.2152 5.63574 11.2153C5.63156 11.1876 5.63867 11.1838 5.64613 11.1813L5.64588 11.1813ZM5.61371 12.3768C5.6612 12.331 5.68742 12.283 5.72038 12.2703C5.73264 12.375 5.57141 12.5356 5.52109 12.317C5.53525 12.2079 5.57928 12.4425 5.56922 12.2806C5.58806 12.3254 5.64136 12.2902 5.61371 12.3768ZM5.50664 11.9199L5.50212 11.8538C5.52344 11.7974 5.51828 11.8557 5.5525 11.8503L5.55703 11.9164C5.5224 11.916 5.53548 11.9733 5.50664 11.9199ZM5.54372 11.3539C5.5408 11.4413 5.49103 11.4277 5.49197 11.5233C5.47352 11.5026 5.46386 11.4545 5.45786 11.3928C5.48678 11.3804 5.50139 11.3374 5.54372 11.3539ZM5.57308 11.783C5.51264 11.8477 5.48884 11.7527 5.42193 11.7934C5.46228 11.7771 5.5402 11.5998 5.57308 11.783ZM5.49101 12.6172C5.50321 12.6171 5.50336 12.6565 5.50817 12.6821C5.53322 12.6802 5.51797 12.5912 5.55405 12.6129L5.56081 12.7116C5.52886 12.7095 5.51701 12.6515 5.51267 12.748C5.50213 12.7426 5.49776 12.7159 5.4851 12.7168C5.47792 12.6638 5.49312 12.6592 5.49101 12.6172ZM5.49414 12.8489C5.50134 12.9207 5.49093 12.9545 5.46317 12.9503C5.46284 12.964 5.46465 12.9718 5.46749 12.9762C5.47114 12.9775 5.47484 12.9795 5.4781 12.9826C5.47398 12.9818 5.4701 12.9808 5.46749 12.9762C5.43044 12.9627 5.37336 13.0243 5.34184 13.0247C5.34089 12.9477 5.34773 12.8877 5.35365 12.8255C5.40605 12.9036 5.42139 12.8527 5.4944 12.8489L5.49414 12.8489ZM5.32403 12.3963C5.32097 12.4296 5.24715 12.3545 5.22916 12.3036C5.21283 12.2025 5.26996 12.2604 5.24319 12.1368C5.19203 12.0917 5.25076 12.2846 5.19956 12.239C5.20615 12.3502 5.25395 12.4243 5.23479 12.568C5.1821 12.5081 5.19304 12.2776 5.15369 12.3085C5.11592 12.2434 5.17242 12.1918 5.19956 12.239L5.19055 12.1073C5.22185 12.1187 5.21377 12.0452 5.25134 12.0701C5.28286 12.1552 5.28696 12.3304 5.32428 12.3963L5.32403 12.3963ZM5.03043 10.6927C5.0998 10.673 5.07933 10.768 5.16077 10.75C5.15609 10.9492 5.04737 10.7173 5.0164 10.8596C5.00007 10.7584 5.05693 10.8161 5.03018 10.6928L5.03043 10.6927ZM5.09519 12.3792C5.12474 12.3761 5.13627 12.4331 5.17313 12.4067C5.11261 12.5075 5.20382 12.4687 5.14669 12.5743C5.11418 12.5862 5.12805 12.4469 5.08952 12.4785C5.08237 12.4261 5.09756 12.4212 5.09544 12.3792L5.09519 12.3792ZM4.93143 11.0974C4.95021 11.0818 4.93521 10.9928 4.97729 11.0278C4.99832 11.1307 4.98936 11.115 4.97593 11.1938C4.96145 11.1197 4.91876 11.1389 4.89345 11.1C4.89856 11.0408 4.91594 11.0941 4.93118 11.0974L4.93143 11.0974ZM5.02027 13.8757C5.09943 13.8652 5.17928 13.757 5.25954 13.8594C5.2187 13.9911 5.10754 13.9318 5.02704 13.9747L5.02027 13.8757ZM5.15275 14.2022C5.14488 14.2768 5.05351 14.265 5.01651 14.2446C5.02981 14.1119 5.13632 14.1962 5.15275 14.2022ZM4.96477 14.4143C4.9799 14.4717 5.01136 14.5077 4.98871 14.5782C4.96779 14.5402 4.9586 14.417 4.94871 14.5476C4.90817 14.3863 4.80058 14.5613 4.78628 14.3931C4.82641 14.4146 4.82979 14.3561 4.85948 14.3551C4.87501 14.385 4.87184 14.4763 4.90396 14.4512C4.93107 14.4311 4.885 14.4009 4.90986 14.3516C4.9271 14.3619 4.93358 14.4082 4.95211 14.4151C4.91624 14.3222 4.97954 14.3848 5.0233 14.3439C5.02621 14.4162 4.99648 14.4167 4.96477 14.4143ZM4.97428 14.1814C4.94967 14.2642 4.94371 14.2811 4.89067 14.2532C4.87196 14.1286 4.94731 14.2074 4.97428 14.1814ZM4.88401 13.9179C4.89545 13.8955 4.89176 13.8415 4.91721 13.8492C4.94271 13.9134 4.91909 13.8916 4.92625 13.9814L4.88853 13.984C4.88794 13.9456 4.88172 13.9254 4.87133 13.9185C4.87131 13.8811 4.88276 13.8997 4.88399 13.9176L4.88401 13.9179ZM4.76745 13.6941C4.77769 13.6876 4.78024 13.7062 4.78237 13.7262C4.77443 13.6585 4.80907 13.6964 4.81105 13.5914C4.84217 13.6076 4.87194 13.7155 4.84968 13.788C4.83542 13.7134 4.76466 13.8243 4.76745 13.6941ZM4.7978 14.1934C4.77384 14.349 4.67938 14.4406 4.62781 14.3004C4.62503 14.3006 4.62199 14.3008 4.61894 14.3008C4.61821 14.2902 4.61833 14.2807 4.61875 14.2721C4.61601 14.2618 4.6135 14.2511 4.61116 14.2393C4.61539 14.2415 4.61902 14.2425 4.62238 14.2433C4.63895 14.1694 4.7072 14.2078 4.75091 14.1923C4.74538 14.2415 4.72937 14.2678 4.70772 14.2823C4.73126 14.314 4.74875 14.1719 4.7978 14.1934ZM4.30511 11.0077C4.32032 11.0181 4.34098 11.0635 4.32226 11.0724C4.32473 11.1048 4.33947 11.0972 4.34959 11.1038C4.33735 11.1517 4.30661 11.1821 4.28905 11.1411C4.29231 11.092 4.30211 11.0567 4.30509 11.0074L4.30511 11.0077ZM4.37355 11.2681C4.3661 11.3266 4.3581 11.3844 4.31727 11.3714C4.29781 11.2468 4.3487 11.2135 4.37355 11.2681ZM4.56929 13.5751C4.59479 13.6393 4.57115 13.6172 4.57833 13.7073C4.61686 13.6978 4.70949 13.6724 4.7236 13.7968C4.59521 13.8201 4.45792 13.8845 4.35849 13.8218C4.36382 13.7769 4.38114 13.7587 4.40436 13.7523C4.37998 13.6934 4.36618 13.778 4.33679 13.6905C4.408 13.5936 4.48757 13.6672 4.56929 13.5751ZM4.57671 14.2376C4.57447 14.3611 4.51082 14.3825 4.47006 14.3446C4.47575 14.2938 4.48687 14.263 4.50148 14.246C4.51061 14.1973 4.55046 14.2035 4.56937 14.2345C4.57172 14.2353 4.57409 14.2365 4.57671 14.2376ZM4.48509 14.2481C4.43065 14.434 4.33777 14.2811 4.29259 14.3941C4.31885 14.2165 4.39537 14.2344 4.48509 14.2481ZM4.30586 13.7923C4.31719 13.9394 4.21525 13.8586 4.21184 13.898C4.17064 13.8163 4.26229 13.7839 4.30586 13.7923ZM3.94855 11.5294C4.06848 11.5833 3.95471 11.3369 3.94855 11.5294V11.5294ZM4.09487 12.746C4.07285 12.8109 4.01736 12.8029 4.01805 12.9171C3.94688 12.851 4.06735 12.6858 4.09487 12.746ZM4.36214 14.4886C4.38934 14.4808 4.40399 14.5129 4.40664 14.585C4.47923 14.4599 4.59527 14.5275 4.70445 14.4985C4.60349 14.5992 4.34676 14.7509 4.20282 14.5656C4.1656 14.5979 4.1567 14.6908 4.15559 14.8011C4.1182 14.5335 4.02526 14.796 3.89689 14.7193C3.91514 14.5845 3.99843 14.7459 4.00353 14.6123C3.99209 14.4971 3.96237 14.6985 3.95087 14.5826C4.08135 14.3592 4.243 14.6323 4.36187 14.4883L4.36214 14.4886ZM3.92643 13.9837C3.88521 13.8496 3.97319 13.9123 4.00779 13.8789C4.0298 14.0704 3.94378 13.8654 3.92643 13.9837ZM3.82244 11.5378C3.82173 11.5943 3.83659 11.5996 3.85203 11.6021C3.83146 11.7068 3.83286 11.9802 3.77157 11.906C3.7545 11.794 3.81417 11.8482 3.8129 11.7702C3.80432 11.6932 3.75583 11.754 3.76476 11.8065C3.72582 11.7021 3.78112 11.5622 3.82217 11.5375L3.82244 11.5378ZM3.77 13.6008C3.82868 13.7372 3.91868 13.5617 3.96567 13.6872C3.90245 13.7261 3.84065 13.7858 3.76413 13.7009C3.76888 13.6737 3.77361 13.6461 3.77 13.6008ZM3.72941 14.0635C3.67687 14.0244 3.68729 14.013 3.63676 14.0032C3.65143 13.8905 3.70576 13.9893 3.75808 13.9285C3.76577 14.0112 3.74592 14.0334 3.72939 14.0633L3.72941 14.0635ZM3.70695 13.6051C3.7094 13.7673 3.656 13.6783 3.59804 13.679C3.61335 13.609 3.68537 13.6616 3.70695 13.6051ZM3.57764 14.6748C3.62595 14.7152 3.62357 14.6693 3.66801 14.7016C3.64506 14.7381 3.57909 14.826 3.57764 14.6748ZM3.46569 14.2802C3.4351 14.2978 3.41667 14.3632 3.34437 14.3549C3.35888 14.225 3.41848 14.2074 3.46569 14.2802ZM3.32918 13.631C3.34324 13.6654 3.37621 13.6379 3.3737 13.7277C3.33281 13.7137 3.3295 13.8029 3.29799 13.7328C3.28751 13.6539 3.3567 13.7469 3.32893 13.631L3.32918 13.631ZM3.3361 14.658C3.36345 14.6747 3.36622 14.7078 3.3553 14.7564C3.42892 14.6203 3.48413 14.6837 3.56724 14.7085C3.5052 14.7685 3.43076 14.8145 3.34514 14.7901C3.34575 14.8287 3.35195 14.8487 3.36207 14.8554C3.35475 14.8897 3.27388 14.823 3.26492 14.7292C3.29831 14.7264 3.34035 14.7424 3.3361 14.658ZM3.03606 14.7118C3.03691 14.8618 3.0673 14.659 3.06815 14.8091C3.0295 14.828 3.01951 14.7526 2.97778 14.7822C2.94212 14.748 3.02452 14.7365 3.03606 14.7118ZM2.57451 13.8813C2.5819 13.9632 2.56176 13.9849 2.56074 14.0481C2.51835 14.0085 2.5495 13.9804 2.52413 13.8847L2.57451 13.8813ZM2.69261 14.8676C2.67224 14.9453 2.62321 14.9611 2.57355 14.9752C2.57601 14.8588 2.64268 14.8814 2.69261 14.8676ZM2.14652 14.8388L2.20957 14.8345C2.21721 14.9164 2.1968 14.9379 2.19578 15.001C2.16431 14.9836 2.13508 14.9579 2.09275 14.975C2.04464 14.8964 2.19585 15.0132 2.14654 14.8391L2.14652 14.8388ZM1.73916 14.8003C1.70954 14.858 1.66354 14.881 1.63839 14.8072C1.63876 14.6861 1.72088 14.7412 1.73916 14.8003ZM1.23781 14.8677C1.25852 14.8357 1.32978 14.7693 1.34899 14.827C1.35562 14.9425 1.28699 14.8727 1.23781 14.8677Z" fill="#FFBF00"/>
<path d="M8.52971 6.59649C8.51885 6.57131 8.4393 6.5165 8.45845 6.63395C8.47881 6.61404 8.53285 6.66763 8.52971 6.59649Z" fill="#FFBF00"/>
<path d="M6.9384 7.51064C6.94699 7.50418 6.94797 7.49703 6.94616 7.48836L6.92594 7.51417C6.92944 7.5154 6.9333 7.51465 6.93841 7.51088L6.9384 7.51064Z" fill="#FFBF00"/>
<path d="M5.70117 9.09424L5.69953 9.07023L5.69296 9.07856C5.69477 9.08705 5.69738 9.09277 5.70117 9.09424Z" fill="#FFBF00"/>
<path d="M9.98839 3.62605L9.95388 3.66979C9.96536 3.66078 9.97686 3.64499 9.98839 3.62605Z" fill="#FFBF00"/>
<path d="M6.98633 7.47388C6.9824 7.46393 6.98 7.45597 6.97838 7.44935L6.97197 7.45745C6.97599 7.4653 6.98038 7.47173 6.9861 7.47389L6.98633 7.47388Z" fill="#FFBF00"/>
</g>
<defs>
<clipPath id="clip0_76_32222">
<rect width="12.9313" height="24.08" fill="white" transform="translate(14.5449 24.5706) rotate(176.086)"/>
</clipPath>
</defs>
</svg>
